<svg xmlns="http://www.w3.org/2000/svg" xmlns:xlink="http://www.w3.org/1999/xlink" width="800" height="500" class="main-svg" viewBox="0 0 800 500"><rect width="800" height="500" x="0" y="0" style="fill:#fff;fill-opacity:1"/><defs id="defs-4a526c"><g class="clips"><clipPath id="clip4a526cxyplot" class="plotclip"><rect width="576" height="320"/></clipPath><clipPath id="clip4a526cx" class="axesclip"><rect width="576" height="500" x="80" y="0"/></clipPath><clipPath id="clip4a526cy" class="axesclip"><rect width="800" height="320" x="0" y="100"/></clipPath><clipPath id="clip4a526cxy" class="axesclip"><rect width="576" height="320" x="80" y="100"/></clipPath></g></defs><g class="bglayer"><rect width="576" height="320" x="80" y="100" class="bg" style="fill:#e5ecf6;fill-opacity:1;stroke-width:0"/></g><g class="cartesianlayer"><g class="subplot xy"><g class="gridlayer"><g class="x"><path d="M0,100v320" class="xgrid crisp" transform="translate(298.03999999999996,0)" style="stroke:#fff;stroke-opacity:1;stroke-width:1px"/><path d="M0,100v320" class="xgrid crisp" transform="translate(424.29,0)" style="stroke:#fff;stroke-opacity:1;stroke-width:1px"/><path d="M0,100v320" class="xgrid crisp" transform="translate(550.53,0)" style="stroke:#fff;stroke-opacity:1;stroke-width:1px"/></g><g class="y"><path d="M80,0h576" class="ygrid crisp" transform="translate(0,365.48)" style="stroke:#fff;stroke-opacity:1;stroke-width:1px"/><path d="M80,0h576" class="ygrid crisp" transform="translate(0,301.11)" style="stroke:#fff;stroke-opacity:1;stroke-width:1px"/><path d="M80,0h576" class="ygrid crisp" transform="translate(0,236.73)" style="stroke:#fff;stroke-opacity:1;stroke-width:1px"/><path d="M80,0h576" class="ygrid crisp" transform="translate(0,172.35)" style="stroke:#fff;stroke-opacity:1;stroke-width:1px"/><path d="M80,0h576" class="ygrid crisp" transform="translate(0,107.97)" style="stroke:#fff;stroke-opacity:1;stroke-width:1px"/></g></g><g class="zerolinelayer"><path d="M0,100v320" class="xzl zl crisp" transform="translate(171.8,0)" style="stroke:#fff;stroke-opacity:1;stroke-width:2px"/></g><path class="xlines-below"/><path class="ylines-below"/><g class="plot" clip-path="url(#clip4a526cxyplot)" transform="translate(80,100)"><g class="scatterlayer mlayer"><g class="trace scatter trace6176e3" style="stroke-miterlimit:2;opacity:1"><g class="points"><path d="M3,0A3,3 0 1,1 0,-3A3,3 0 0,1 3,0Z" class="point" transform="translate(464.67,74.75)" style="opacity:1;stroke-width:0;fill:#636efa;fill-opacity:1"/><path d="M3,0A3,3 0 1,1 0,-3A3,3 0 0,1 3,0Z" class="point" transform="translate(170.26,225.92)" style="opacity:1;stroke-width:0;fill:#636efa;fill-opacity:1"/><path d="M3,0A3,3 0 1,1 0,-3A3,3 0 0,1 3,0Z" class="point" transform="translate(275.28,156.6)" style="opacity:1;stroke-width:0;fill:#636efa;fill-opacity:1"/><path d="M3,0A3,3 0 1,1 0,-3A3,3 0 0,1 3,0Z" class="point" transform="translate(137.63,271.11)" style="opacity:1;stroke-width:0;fill:#636efa;fill-opacity:1"/><path d="M3,0A3,3 0 1,1 0,-3A3,3 0 0,1 3,0Z" class="point" transform="translate(514.82,19.75)" style="opacity:1;stroke-width:0;fill:#636efa;fill-opacity:1"/><path d="M3,0A3,3 0 1,1 0,-3A3,3 0 0,1 3,0Z" class="point" transform="translate(226.91,173.13)" style="opacity:1;stroke-width:0;fill:#636efa;fill-opacity:1"/><path d="M3,0A3,3 0 1,1 0,-3A3,3 0 0,1 3,0Z" class="point" transform="translate(310.35,151.45)" style="opacity:1;stroke-width:0;fill:#636efa;fill-opacity:1"/><path d="M3,0A3,3 0 1,1 0,-3A3,3 0 0,1 3,0Z" class="point" transform="translate(198,215.08)" style="opacity:1;stroke-width:0;fill:#636efa;fill-opacity:1"/><path d="M3,0A3,3 0 1,1 0,-3A3,3 0 0,1 3,0Z" class="point" transform="translate(277.55,170.25)" style="opacity:1;stroke-width:0;fill:#636efa;fill-opacity:1"/><path d="M3,0A3,3 0 1,1 0,-3A3,3 0 0,1 3,0Z" class="point" transform="translate(133.92,239.35)" style="opacity:1;stroke-width:0;fill:#636efa;fill-opacity:1"/><path d="M3,0A3,3 0 1,1 0,-3A3,3 0 0,1 3,0Z" class="point" transform="translate(301.29,161.56)" style="opacity:1;stroke-width:0;fill:#636efa;fill-opacity:1"/><path d="M3,0A3,3 0 1,1 0,-3A3,3 0 0,1 3,0Z" class="point" transform="translate(464.21,95.16)" style="opacity:1;stroke-width:0;fill:#636efa;fill-opacity:1"/><path d="M3,0A3,3 0 1,1 0,-3A3,3 0 0,1 3,0Z" class="point" transform="translate(477.74,73.19)" style="opacity:1;stroke-width:0;fill:#636efa;fill-opacity:1"/><path d="M3,0A3,3 0 1,1 0,-3A3,3 0 0,1 3,0Z" class="point" transform="translate(512.33,45.08)" style="opacity:1;stroke-width:0;fill:#636efa;fill-opacity:1"/><path d="M3,0A3,3 0 1,1 0,-3A3,3 0 0,1 3,0Z" class="point" transform="translate(113.49,238.15)" style="opacity:1;stroke-width:0;fill:#636efa;fill-opacity:1"/><path d="M3,0A3,3 0 1,1 0,-3A3,3 0 0,1 3,0Z" class="point" transform="translate(304.73,167)" style="opacity:1;stroke-width:0;fill:#636efa;fill-opacity:1"/><path d="M3,0A3,3 0 1,1 0,-3A3,3 0 0,1 3,0Z" class="point" transform="translate(392.86,106.14)" style="opacity:1;stroke-width:0;fill:#636efa;fill-opacity:1"/><path d="M3,0A3,3 0 1,1 0,-3A3,3 0 0,1 3,0Z" class="point" transform="translate(111.2,246.59)" style="opacity:1;stroke-width:0;fill:#636efa;fill-opacity:1"/><path d="M3,0A3,3 0 1,1 0,-3A3,3 0 0,1 3,0Z" class="point" transform="translate(378.68,123.86)" style="opacity:1;stroke-width:0;fill:#636efa;fill-opacity:1"/><path d="M3,0A3,3 0 1,1 0,-3A3,3 0 0,1 3,0Z" class="point" transform="translate(124.52,255.68)" style="opacity:1;stroke-width:0;fill:#636efa;fill-opacity:1"/><path d="M3,0A3,3 0 1,1 0,-3A3,3 0 0,1 3,0Z" class="point" transform="translate(352.17,100)" style="opacity:1;stroke-width:0;fill:#636efa;fill-opacity:1"/><path d="M3,0A3,3 0 1,1 0,-3A3,3 0 0,1 3,0Z" class="point" transform="translate(530.96,47.49)" style="opacity:1;stroke-width:0;fill:#636efa;fill-opacity:1"/><path d="M3,0A3,3 0 1,1 0,-3A3,3 0 0,1 3,0Z" class="point" transform="translate(352.12,117.93)" style="opacity:1;stroke-width:0;fill:#636efa;fill-opacity:1"/><path d="M3,0A3,3 0 1,1 0,-3A3,3 0 0,1 3,0Z" class="point" transform="translate(249.29,218.1)" style="opacity:1;stroke-width:0;fill:#636efa;fill-opacity:1"/><path d="M3,0A3,3 0 1,1 0,-3A3,3 0 0,1 3,0Z" class="point" transform="translate(484.46,70.85)" style="opacity:1;stroke-width:0;fill:#636efa;fill-opacity:1"/><path d="M3,0A3,3 0 1,1 0,-3A3,3 0 0,1 3,0Z" class="point" transform="translate(161.83,233.23)" style="opacity:1;stroke-width:0;fill:#636efa;fill-opacity:1"/><path d="M3,0A3,3 0 1,1 0,-3A3,3 0 0,1 3,0Z" class="point" transform="translate(485.63,77.97)" style="opacity:1;stroke-width:0;fill:#636efa;fill-opacity:1"/><path d="M3,0A3,3 0 1,1 0,-3A3,3 0 0,1 3,0Z" class="point" transform="translate(283.13,148.2)" style="opacity:1;stroke-width:0;fill:#636efa;fill-opacity:1"/><path d="M3,0A3,3 0 1,1 0,-3A3,3 0 0,1 3,0Z" class="point" transform="translate(143.35,248.99)" style="opacity:1;stroke-width:0;fill:#636efa;fill-opacity:1"/><path d="M3,0A3,3 0 1,1 0,-3A3,3 0 0,1 3,0Z" class="point" transform="translate(341.93,151.2)" style="opacity:1;stroke-width:0;fill:#636efa;fill-opacity:1"/><path d="M3,0A3,3 0 1,1 0,-3A3,3 0 0,1 3,0Z" class="point" transform="translate(164.33,225.3)" style="opacity:1;stroke-width:0;fill:#636efa;fill-opacity:1"/><path d="M3,0A3,3 0 1,1 0,-3A3,3 0 0,1 3,0Z" class="point" transform="translate(130.74,241.14)" style="opacity:1;stroke-width:0;fill:#636efa;fill-opacity:1"/><path d="M3,0A3,3 0 1,1 0,-3A3,3 0 0,1 3,0Z" class="point" transform="translate(229.71,212.13)" style="opacity:1;stroke-width:0;fill:#636efa;fill-opacity:1"/><path d="M3,0A3,3 0 1,1 0,-3A3,3 0 0,1 3,0Z" class="point" transform="translate(471.64,78.13)" style="opacity:1;stroke-width:0;fill:#636efa;fill-opacity:1"/><path d="M3,0A3,3 0 1,1 0,-3A3,3 0 0,1 3,0Z" class="point" transform="translate(243.13,179.95)" style="opacity:1;stroke-width:0;fill:#636efa;fill-opacity:1"/><path d="M3,0A3,3 0 1,1 0,-3A3,3 0 0,1 3,0Z" class="point" transform="translate(213.13,203.26)" style="opacity:1;stroke-width:0;fill:#636efa;fill-opacity:1"/><path d="M3,0A3,3 0 1,1 0,-3A3,3 0 0,1 3,0Z" class="point" transform="translate(317.78,169.22)" style="opacity:1;stroke-width:0;fill:#636efa;fill-opacity:1"/><path d="M3,0A3,3 0 1,1 0,-3A3,3 0 0,1 3,0Z" class="point" transform="translate(218.55,217.59)" style="opacity:1;stroke-width:0;fill:#636efa;fill-opacity:1"/><path d="M3,0A3,3 0 1,1 0,-3A3,3 0 0,1 3,0Z" class="point" transform="translate(341.65,121.79)" style="opacity:1;stroke-width:0;fill:#636efa;fill-opacity:1"/><path d="M3,0A3,3 0 1,1 0,-3A3,3 0 0,1 3,0Z" class="point" transform="translate(223.16,213.34)" style="opacity:1;stroke-width:0;fill:#636efa;fill-opacity:1"/><path d="M3,0A3,3 0 1,1 0,-3A3,3 0 0,1 3,0Z" class="point" transform="translate(96.74,268.65)" style="opacity:1;stroke-width:0;fill:#636efa;fill-opacity:1"/><path d="M3,0A3,3 0 1,1 0,-3A3,3 0 0,1 3,0Z" class="point" transform="translate(114.32,251.47)" style="opacity:1;stroke-width:0;fill:#636efa;fill-opacity:1"/><path d="M3,0A3,3 0 1,1 0,-3A3,3 0 0,1 3,0Z" class="point" transform="translate(276.36,182.37)" style="opacity:1;stroke-width:0;fill:#636efa;fill-opacity:1"/><path d="M3,0A3,3 0 1,1 0,-3A3,3 0 0,1 3,0Z" class="point" transform="translate(365.87,121.67)" style="opacity:1;stroke-width:0;fill:#636efa;fill-opacity:1"/><path d="M3,0A3,3 0 1,1 0,-3A3,3 0 0,1 3,0Z" class="point" transform="translate(488.18,55.34)" style="opacity:1;stroke-width:0;fill:#636efa;fill-opacity:1"/><path d="M3,0A3,3 0 1,1 0,-3A3,3 0 0,1 3,0Z" class="point" transform="translate(112.3,224.63)" style="opacity:1;stroke-width:0;fill:#636efa;fill-opacity:1"/><path d="M3,0A3,3 0 1,1 0,-3A3,3 0 0,1 3,0Z" class="point" transform="translate(480.67,55.07)" style="opacity:1;stroke-width:0;fill:#636efa;fill-opacity:1"/><path d="M3,0A3,3 0 1,1 0,-3A3,3 0 0,1 3,0Z" class="point" transform="translate(324.49,135.9)" style="opacity:1;stroke-width:0;fill:#636efa;fill-opacity:1"/><path d="M3,0A3,3 0 1,1 0,-3A3,3 0 0,1 3,0Z" class="point" transform="translate(318.67,149.53)" style="opacity:1;stroke-width:0;fill:#636efa;fill-opacity:1"/><path d="M3,0A3,3 0 1,1 0,-3A3,3 0 0,1 3,0Z" class="point" transform="translate(186.32,192.69)" style="opacity:1;stroke-width:0;fill:#636efa;fill-opacity:1"/><path d="M3,0A3,3 0 1,1 0,-3A3,3 0 0,1 3,0Z" class="point" transform="translate(110.78,253.72)" style="opacity:1;stroke-width:0;fill:#636efa;fill-opacity:1"/><path d="M3,0A3,3 0 1,1 0,-3A3,3 0 0,1 3,0Z" class="point" transform="translate(258.35,181.28)" style="opacity:1;stroke-width:0;fill:#636efa;fill-opacity:1"/><path d="M3,0A3,3 0 1,1 0,-3A3,3 0 0,1 3,0Z" class="point" transform="translate(338.01,181.54)" style="opacity:1;stroke-width:0;fill:#636efa;fill-opacity:1"/><path d="M3,0A3,3 0 1,1 0,-3A3,3 0 0,1 3,0Z" class="point" transform="translate(278.67,174.48)" style="opacity:1;stroke-width:0;fill:#636efa;fill-opacity:1"/><path d="M3,0A3,3 0 1,1 0,-3A3,3 0 0,1 3,0Z" class="point" transform="translate(529.29,37.66)" style="opacity:1;stroke-width:0;fill:#636efa;fill-opacity:1"/><path d="M3,0A3,3 0 1,1 0,-3A3,3 0 0,1 3,0Z" class="point" transform="translate(357.77,120.26)" style="opacity:1;stroke-width:0;fill:#636efa;fill-opacity:1"/><path d="M3,0A3,3 0 1,1 0,-3A3,3 0 0,1 3,0Z" class="point" transform="translate(474.78,88.17)" style="opacity:1;stroke-width:0;fill:#636efa;fill-opacity:1"/><path d="M3,0A3,3 0 1,1 0,-3A3,3 0 0,1 3,0Z" class="point" transform="translate(330.9,131.99)" style="opacity:1;stroke-width:0;fill:#636efa;fill-opacity:1"/><path d="M3,0A3,3 0 1,1 0,-3A3,3 0 0,1 3,0Z" class="point" transform="translate(433.85,95.79)" style="opacity:1;stroke-width:0;fill:#636efa;fill-opacity:1"/><path d="M3,0A3,3 0 1,1 0,-3A3,3 0 0,1 3,0Z" class="point" transform="translate(288.77,190.96)" style="opacity:1;stroke-width:0;fill:#636efa;fill-opacity:1"/><path d="M3,0A3,3 0 1,1 0,-3A3,3 0 0,1 3,0Z" class="point" transform="translate(155.4,250.66)" style="opacity:1;stroke-width:0;fill:#636efa;fill-opacity:1"/><path d="M3,0A3,3 0 1,1 0,-3A3,3 0 0,1 3,0Z" class="point" transform="translate(210.89,186.09)" style="opacity:1;stroke-width:0;fill:#636efa;fill-opacity:1"/><path d="M3,0A3,3 0 1,1 0,-3A3,3 0 0,1 3,0Z" class="point" transform="translate(345.27,141.74)" style="opacity:1;stroke-width:0;fill:#636efa;fill-opacity:1"/><path d="M3,0A3,3 0 1,1 0,-3A3,3 0 0,1 3,0Z" class="point" transform="translate(389.01,114.49)" style="opacity:1;stroke-width:0;fill:#636efa;fill-opacity:1"/><path d="M3,0A3,3 0 1,1 0,-3A3,3 0 0,1 3,0Z" class="point" transform="translate(307.36,150.87)" style="opacity:1;stroke-width:0;fill:#636efa;fill-opacity:1"/><path d="M3,0A3,3 0 1,1 0,-3A3,3 0 0,1 3,0Z" class="point" transform="translate(157.03,233.74)" style="opacity:1;stroke-width:0;fill:#636efa;fill-opacity:1"/><path d="M3,0A3,3 0 1,1 0,-3A3,3 0 0,1 3,0Z" class="point" transform="translate(128.11,271.87)" style="opacity:1;stroke-width:0;fill:#636efa;fill-opacity:1"/><path d="M3,0A3,3 0 1,1 0,-3A3,3 0 0,1 3,0Z" class="point" transform="translate(354.55,121.68)" style="opacity:1;stroke-width:0;fill:#636efa;fill-opacity:1"/><path d="M3,0A3,3 0 1,1 0,-3A3,3 0 0,1 3,0Z" class="point" transform="translate(517.48,50.53)" style="opacity:1;stroke-width:0;fill:#636efa;fill-opacity:1"/><path d="M3,0A3,3 0 1,1 0,-3A3,3 0 0,1 3,0Z" class="point" transform="translate(400.46,117.93)" style="opacity:1;stroke-width:0;fill:#636efa;fill-opacity:1"/><path d="M3,0A3,3 0 1,1 0,-3A3,3 0 0,1 3,0Z" class="point" transform="translate(332.04,127.42)" style="opacity:1;stroke-width:0;fill:#636efa;fill-opacity:1"/><path d="M3,0A3,3 0 1,1 0,-3A3,3 0 0,1 3,0Z" class="point" transform="translate(346.36,143.2)" style="opacity:1;stroke-width:0;fill:#636efa;fill-opacity:1"/><path d="M3,0A3,3 0 1,1 0,-3A3,3 0 0,1 3,0Z" class="point" transform="translate(298.75,153.9)" style="opacity:1;stroke-width:0;fill:#636efa;fill-opacity:1"/><path d="M3,0A3,3 0 1,1 0,-3A3,3 0 0,1 3,0Z" class="point" transform="translate(356.83,107.59)" style="opacity:1;stroke-width:0;fill:#636efa;fill-opacity:1"/><path d="M3,0A3,3 0 1,1 0,-3A3,3 0 0,1 3,0Z" class="point" transform="translate(275.45,161.1)" style="opacity:1;stroke-width:0;fill:#636efa;fill-opacity:1"/><path d="M3,0A3,3 0 1,1 0,-3A3,3 0 0,1 3,0Z" class="point" transform="translate(372.81,130.62)" style="opacity:1;stroke-width:0;fill:#636efa;fill-opacity:1"/><path d="M3,0A3,3 0 1,1 0,-3A3,3 0 0,1 3,0Z" class="point" transform="translate(137.24,238.13)" style="opacity:1;stroke-width:0;fill:#636efa;fill-opacity:1"/><path d="M3,0A3,3 0 1,1 0,-3A3,3 0 0,1 3,0Z" class="point" transform="translate(288.49,149.64)" style="opacity:1;stroke-width:0;fill:#636efa;fill-opacity:1"/><path d="M3,0A3,3 0 1,1 0,-3A3,3 0 0,1 3,0Z" class="point" transform="translate(269.28,191.98)" style="opacity:1;stroke-width:0;fill:#636efa;fill-opacity:1"/><path d="M3,0A3,3 0 1,1 0,-3A3,3 0 0,1 3,0Z" class="point" transform="translate(239.74,179.14)" style="opacity:1;stroke-width:0;fill:#636efa;fill-opacity:1"/><path d="M3,0A3,3 0 1,1 0,-3A3,3 0 0,1 3,0Z" class="point" transform="translate(529.7,44.62)" style="opacity:1;stroke-width:0;fill:#636efa;fill-opacity:1"/><path d="M3,0A3,3 0 1,1 0,-3A3,3 0 0,1 3,0Z" class="point" transform="translate(257.73,176.18)" style="opacity:1;stroke-width:0;fill:#636efa;fill-opacity:1"/><path d="M3,0A3,3 0 1,1 0,-3A3,3 0 0,1 3,0Z" class="point" transform="translate(479.09,65.98)" style="opacity:1;stroke-width:0;fill:#636efa;fill-opacity:1"/><path d="M3,0A3,3 0 1,1 0,-3A3,3 0 0,1 3,0Z" class="point" transform="translate(543.45,44.11)" style="opacity:1;stroke-width:0;fill:#636efa;fill-opacity:1"/><path d="M3,0A3,3 0 1,1 0,-3A3,3 0 0,1 3,0Z" class="point" transform="translate(452.21,95.75)" style="opacity:1;stroke-width:0;fill:#636efa;fill-opacity:1"/><path d="M3,0A3,3 0 1,1 0,-3A3,3 0 0,1 3,0Z" class="point" transform="translate(448.54,85.38)" style="opacity:1;stroke-width:0;fill:#636efa;fill-opacity:1"/><path d="M3,0A3,3 0 1,1 0,-3A3,3 0 0,1 3,0Z" class="point" transform="translate(371.81,112.16)" style="opacity:1;stroke-width:0;fill:#636efa;fill-opacity:1"/><path d="M3,0A3,3 0 1,1 0,-3A3,3 0 0,1 3,0Z" class="point" transform="translate(438.92,79.2)" style="opacity:1;stroke-width:0;fill:#636efa;fill-opacity:1"/><path d="M3,0A3,3 0 1,1 0,-3A3,3 0 0,1 3,0Z" class="point" transform="translate(276.72,156.96)" style="opacity:1;stroke-width:0;fill:#636efa;fill-opacity:1"/><path d="M3,0A3,3 0 1,1 0,-3A3,3 0 0,1 3,0Z" class="point" transform="translate(232.98,205.36)" style="opacity:1;stroke-width:0;fill:#636efa;fill-opacity:1"/><path d="M3,0A3,3 0 1,1 0,-3A3,3 0 0,1 3,0Z" class="point" transform="translate(158.09,246.69)" style="opacity:1;stroke-width:0;fill:#636efa;fill-opacity:1"/><path d="M3,0A3,3 0 1,1 0,-3A3,3 0 0,1 3,0Z" class="point" transform="translate(231.16,196.57)" style="opacity:1;stroke-width:0;fill:#636efa;fill-opacity:1"/><path d="M3,0A3,3 0 1,1 0,-3A3,3 0 0,1 3,0Z" class="point" transform="translate(423,103.4)" style="opacity:1;stroke-width:0;fill:#636efa;fill-opacity:1"/></g></g><g class="trace scatter trace377103" style="stroke-miterlimit:2;opacity:1"><g class="lines"><path d="M91.8,265.73L546.28,33.8" class="js-line" style="vector-effect:non-scaling-stroke;fill:none;stroke:#ef553b;stroke-opacity:1;stroke-width:2px;opacity:1"/></g></g><g class="trace scatter trace96e0cc" style="stroke-miterlimit:2;opacity:1"><g class="points"><path d="M10,0A10,10 0 1,1 0,-10A10,10 0 0,1 10,0Z" class="point" transform="translate(117.05,252.85)" style="opacity:1;stroke-width:2px;fill:purple;fill-opacity:1;stroke:purple;stroke-opacity:1"/><path d="M10,0A10,10 0 1,1 0,-10A10,10 0 0,1 10,0Z" class="point" transform="translate(142.3,239.96)" style="opacity:1;stroke-width:2px;fill:purple;fill-opacity:1;stroke:purple;stroke-opacity:1"/><path d="M10,0A10,10 0 1,1 0,-10A10,10 0 0,1 10,0Z" class="point" transform="translate(167.55,227.08)" style="opacity:1;stroke-width:2px;fill:purple;fill-opacity:1;stroke:purple;stroke-opacity:1"/><path d="M10,0A10,10 0 1,1 0,-10A10,10 0 0,1 10,0Z" class="point" transform="translate(192.79,214.19)" style="opacity:1;stroke-width:2px;fill:purple;fill-opacity:1;stroke:purple;stroke-opacity:1"/><path d="M10,0A10,10 0 1,1 0,-10A10,10 0 0,1 10,0Z" class="point" transform="translate(218.04,201.31)" style="opacity:1;stroke-width:2px;fill:purple;fill-opacity:1;stroke:purple;stroke-opacity:1"/><path d="M10,0A10,10 0 1,1 0,-10A10,10 0 0,1 10,0Z" class="point" transform="translate(243.29,188.42)" style="opacity:1;stroke-width:2px;fill:purple;fill-opacity:1;stroke:purple;stroke-opacity:1"/><path d="M10,0A10,10 0 1,1 0,-10A10,10 0 0,1 10,0Z" class="point" transform="translate(268.54,175.54)" style="opacity:1;stroke-width:2px;fill:purple;fill-opacity:1;stroke:purple;stroke-opacity:1"/><path d="M10,0A10,10 0 1,1 0,-10A10,10 0 0,1 10,0Z" class="point" transform="translate(293.79,162.65)" style="opacity:1;stroke-width:2px;fill:purple;fill-opacity:1;stroke:purple;stroke-opacity:1"/><path d="M10,0A10,10 0 1,1 0,-10A10,10 0 0,1 10,0Z" class="point" transform="translate(319.04,149.77)" style="opacity:1;stroke-width:2px;fill:purple;fill-opacity:1;stroke:purple;stroke-opacity:1"/><path d="M10,0A10,10 0 1,1 0,-10A10,10 0 0,1 10,0Z" class="point" transform="translate(344.29,136.88)" style="opacity:1;stroke-width:2px;fill:purple;fill-opacity:1;stroke:purple;stroke-opacity:1"/><path d="M10,0A10,10 0 1,1 0,-10A10,10 0 0,1 10,0Z" class="point" transform="translate(41.3,291.5)" style="opacity:1;stroke-width:2px;fill:purple;fill-opacity:1;stroke:purple;stroke-opacity:1"/></g></g></g></g><path d="M0,0" class="xlines-above crisp" style="fill:none"/><path d="M0,0" class="ylines-above crisp" style="fill:none"/><g class="xaxislayer-above"><g class="xtick"><text x="0" y="433" text-anchor="middle" transform="translate(171.8,0)" style="font-family:'Open Sans',verdana,arial,sans-serif;font-size:12px;fill:#2a3f5f;fill-opacity:1;white-space:pre;opacity:1">0</text></g><g class="xtick"><text x="0" y="433" text-anchor="middle" transform="translate(298.03999999999996,0)" style="font-family:'Open Sans',verdana,arial,sans-serif;font-size:12px;fill:#2a3f5f;fill-opacity:1;white-space:pre;opacity:1">5</text></g><g class="xtick"><text x="0" y="433" text-anchor="middle" transform="translate(424.29,0)" style="font-family:'Open Sans',verdana,arial,sans-serif;font-size:12px;fill:#2a3f5f;fill-opacity:1;white-space:pre;opacity:1">10</text></g><g class="xtick"><text x="0" y="433" text-anchor="middle" transform="translate(550.53,0)" style="font-family:'Open Sans',verdana,arial,sans-serif;font-size:12px;fill:#2a3f5f;fill-opacity:1;white-space:pre;opacity:1">15</text></g></g><g class="yaxislayer-above"><g class="ytick"><text x="79" y="4.2" text-anchor="end" transform="translate(0,365.48)" style="font-family:'Open Sans',verdana,arial,sans-serif;font-size:12px;fill:#2a3f5f;fill-opacity:1;white-space:pre;opacity:1">30</text></g><g class="ytick"><text x="79" y="4.2" text-anchor="end" transform="translate(0,301.11)" style="font-family:'Open Sans',verdana,arial,sans-serif;font-size:12px;fill:#2a3f5f;fill-opacity:1;white-space:pre;opacity:1">40</text></g><g class="ytick"><text x="79" y="4.2" text-anchor="end" transform="translate(0,236.73)" style="font-family:'Open Sans',verdana,arial,sans-serif;font-size:12px;fill:#2a3f5f;fill-opacity:1;white-space:pre;opacity:1">50</text></g><g class="ytick"><text x="79" y="4.2" text-anchor="end" transform="translate(0,172.35)" style="font-family:'Open Sans',verdana,arial,sans-serif;font-size:12px;fill:#2a3f5f;fill-opacity:1;white-space:pre;opacity:1">60</text></g><g class="ytick"><text x="79" y="4.2" text-anchor="end" transform="translate(0,107.97)" style="font-family:'Open Sans',verdana,arial,sans-serif;font-size:12px;fill:#2a3f5f;fill-opacity:1;white-space:pre;opacity:1">70</text></g></g></g></g><defs id="topdefs-4a526c"><clipPath id="legend4a526c"><rect width="120" height="48" x="0" y="0"/></clipPath></defs><g class="infolayer"><g class="legend" pointer-events="all" transform="translate(667.52,100)"><rect style="stroke:#444;stroke-opacity:1;fill:#fff;fill-opacity:1;stroke-width:0" width="120" height="48" x="0" y="0" class="bg" shape-rendering="crispEdges"/><g class="scrollbox" clip-path="url(#legend4a526c)"><g class="groups"><g class="traces" transform="translate(0,14.5)" style="opacity:1"><text x="40" y="4.68" class="legendtext" text-anchor="start" style="font-family:'Open Sans',verdana,arial,sans-serif;font-size:12px;fill:#2a3f5f;fill-opacity:1;white-space:pre">Model</text><g class="layers" style="opacity:1"><g class="legendlines"><path d="M5,0h30" class="js-line" style="fill:none;stroke:#ef553b;stroke-opacity:1;stroke-width:2px"/></g></g><rect width="114.141" height="19" x="0" y="-9.5" class="legendtoggle" style="fill:#000;fill-opacity:0"/></g><g class="traces" transform="translate(0,33.5)" style="opacity:1"><text x="40" y="4.68" class="legendtext" text-anchor="start" style="font-family:'Open Sans',verdana,arial,sans-serif;font-size:12px;fill:#2a3f5f;fill-opacity:1;white-space:pre">New Outputs</text><g class="layers" style="opacity:1"><g class="legendsymbols"><g class="legendpoints"><path d="M8,0A8,8 0 1,1 0,-8A8,8 0 0,1 8,0Z" class="scatterpts" transform="translate(20,0)" style="opacity:1;stroke-width:2px;fill:purple;fill-opacity:1;stroke:purple;stroke-opacity:1"/></g></g></g><rect width="114.141" height="19" x="0" y="-9.5" class="legendtoggle" style="fill:#000;fill-opacity:0"/></g></g></g><rect width="0" height="0" x="0" y="0" class="scrollbar" rx="20" ry="3" style="fill:#808ba4;fill-opacity:1"/></g><g class="g-gtitle"><text x="40" y="50" class="gtitle" dy="0em" text-anchor="start" style="font-family:'Open Sans',verdana,arial,sans-serif;font-size:17px;fill:#2a3f5f;opacity:1;font-weight:400;white-space:pre">Heights vs Age of people</text></g><g class="g-xtitle"><text x="368" y="461.8" class="xtitle" text-anchor="middle" style="font-family:'Open Sans',verdana,arial,sans-serif;font-size:14px;fill:#2a3f5f;opacity:1;font-weight:400;white-space:pre">Age (years)</text></g><g class="g-ytitle"><text x="40.466" y="260" class="ytitle" text-anchor="middle" transform="rotate(-90,40.465625,260)" style="font-family:'Open Sans',verdana,arial,sans-serif;font-size:14px;fill:#2a3f5f;opacity:1;font-weight:400;white-space:pre">Height (inches)</text></g></g></svg>