<svg xmlns="http://www.w3.org/2000/svg" xmlns:xlink="http://www.w3.org/1999/xlink" width="800" height="500" class="main-svg" viewBox="0 0 800 500"><rect width="800" height="500" x="0" y="0" style="fill:#fff;fill-opacity:1"/><defs id="defs-397c44"><g class="clips"><clipPath id="clip397c44xyplot" class="plotclip"><rect width="615" height="320"/></clipPath><clipPath id="clip397c44x" class="axesclip"><rect width="615" height="500" x="80" y="0"/></clipPath><clipPath id="clip397c44y" class="axesclip"><rect width="800" height="320" x="0" y="100"/></clipPath><clipPath id="clip397c44xy" class="axesclip"><rect width="615" height="320" x="80" y="100"/></clipPath></g></defs><g class="bglayer"><rect width="615" height="320" x="80" y="100" class="bg" style="fill:#e5ecf6;fill-opacity:1;stroke-width:0"/></g><g class="cartesianlayer"><g class="subplot xy"><g class="gridlayer"><g class="x"><path d="M0,100v320" class="xgrid crisp" transform="translate(262.77,0)" style="stroke:#fff;stroke-opacity:1;stroke-width:1px"/><path d="M0,100v320" class="xgrid crisp" transform="translate(417.07,0)" style="stroke:#fff;stroke-opacity:1;stroke-width:1px"/><path d="M0,100v320" class="xgrid crisp" transform="translate(571.38,0)" style="stroke:#fff;stroke-opacity:1;stroke-width:1px"/></g><g class="y"><path d="M80,0h615" class="ygrid crisp" transform="translate(0,393.14)" style="stroke:#fff;stroke-opacity:1;stroke-width:1px"/><path d="M80,0h615" class="ygrid crisp" transform="translate(0,357.33)" style="stroke:#fff;stroke-opacity:1;stroke-width:1px"/><path d="M80,0h615" class="ygrid crisp" transform="translate(0,321.52)" style="stroke:#fff;stroke-opacity:1;stroke-width:1px"/><path d="M80,0h615" class="ygrid crisp" transform="translate(0,285.71000000000004)" style="stroke:#fff;stroke-opacity:1;stroke-width:1px"/><path d="M80,0h615" class="ygrid crisp" transform="translate(0,249.89)" style="stroke:#fff;stroke-opacity:1;stroke-width:1px"/><path d="M80,0h615" class="ygrid crisp" transform="translate(0,214.07999999999998)" style="stroke:#fff;stroke-opacity:1;stroke-width:1px"/><path d="M80,0h615" class="ygrid crisp" transform="translate(0,178.26999999999998)" style="stroke:#fff;stroke-opacity:1;stroke-width:1px"/><path d="M80,0h615" class="ygrid crisp" transform="translate(0,142.46)" style="stroke:#fff;stroke-opacity:1;stroke-width:1px"/><path d="M80,0h615" class="ygrid crisp" transform="translate(0,106.65)" style="stroke:#fff;stroke-opacity:1;stroke-width:1px"/></g></g><g class="zerolinelayer"><path d="M0,100v320" class="xzl zl crisp" transform="translate(108.46000000000001,0)" style="stroke:#fff;stroke-opacity:1;stroke-width:2px"/></g><path class="xlines-below"/><path class="ylines-below"/><g class="plot" clip-path="url(#clip397c44xyplot)" transform="translate(80,100)"><g class="scatterlayer mlayer"><g class="trace scatter trace63e009" style="stroke-miterlimit:2;opacity:1"><g class="points"><path d="M3,0A3,3 0 1,1 0,-3A3,3 0 0,1 3,0Z" class="point" transform="translate(484.21,80.94)" style="opacity:1;stroke-width:0;fill:#636efa;fill-opacity:1"/><path d="M3,0A3,3 0 1,1 0,-3A3,3 0 0,1 3,0Z" class="point" transform="translate(124.37,249.12)" style="opacity:1;stroke-width:0;fill:#636efa;fill-opacity:1"/><path d="M3,0A3,3 0 1,1 0,-3A3,3 0 0,1 3,0Z" class="point" transform="translate(252.73,172.01)" style="opacity:1;stroke-width:0;fill:#636efa;fill-opacity:1"/><path d="M3,0A3,3 0 1,1 0,-3A3,3 0 0,1 3,0Z" class="point" transform="translate(84.48,299.41)" style="opacity:1;stroke-width:0;fill:#636efa;fill-opacity:1"/><path d="M3,0A3,3 0 1,1 0,-3A3,3 0 0,1 3,0Z" class="point" transform="translate(545.5,19.75)" style="opacity:1;stroke-width:0;fill:#636efa;fill-opacity:1"/><path d="M3,0A3,3 0 1,1 0,-3A3,3 0 0,1 3,0Z" class="point" transform="translate(193.61,190.39)" style="opacity:1;stroke-width:0;fill:#636efa;fill-opacity:1"/><path d="M3,0A3,3 0 1,1 0,-3A3,3 0 0,1 3,0Z" class="point" transform="translate(295.59,166.27)" style="opacity:1;stroke-width:0;fill:#636efa;fill-opacity:1"/><path d="M3,0A3,3 0 1,1 0,-3A3,3 0 0,1 3,0Z" class="point" transform="translate(158.26,237.06)" style="opacity:1;stroke-width:0;fill:#636efa;fill-opacity:1"/><path d="M3,0A3,3 0 1,1 0,-3A3,3 0 0,1 3,0Z" class="point" transform="translate(255.5,187.19)" style="opacity:1;stroke-width:0;fill:#636efa;fill-opacity:1"/><path d="M3,0A3,3 0 1,1 0,-3A3,3 0 0,1 3,0Z" class="point" transform="translate(79.94,264.07)" style="opacity:1;stroke-width:0;fill:#636efa;fill-opacity:1"/><path d="M3,0A3,3 0 1,1 0,-3A3,3 0 0,1 3,0Z" class="point" transform="translate(284.51,177.52)" style="opacity:1;stroke-width:0;fill:#636efa;fill-opacity:1"/><path d="M3,0A3,3 0 1,1 0,-3A3,3 0 0,1 3,0Z" class="point" transform="translate(483.65,103.65)" style="opacity:1;stroke-width:0;fill:#636efa;fill-opacity:1"/><path d="M3,0A3,3 0 1,1 0,-3A3,3 0 0,1 3,0Z" class="point" transform="translate(500.19,79.2)" style="opacity:1;stroke-width:0;fill:#636efa;fill-opacity:1"/><path d="M3,0A3,3 0 1,1 0,-3A3,3 0 0,1 3,0Z" class="point" transform="translate(542.46,47.93)" style="opacity:1;stroke-width:0;fill:#636efa;fill-opacity:1"/><path d="M3,0A3,3 0 1,1 0,-3A3,3 0 0,1 3,0Z" class="point" transform="translate(54.98,262.73)" style="opacity:1;stroke-width:0;fill:#636efa;fill-opacity:1"/><path d="M3,0A3,3 0 1,1 0,-3A3,3 0 0,1 3,0Z" class="point" transform="translate(288.72,183.57)" style="opacity:1;stroke-width:0;fill:#636efa;fill-opacity:1"/><path d="M3,0A3,3 0 1,1 0,-3A3,3 0 0,1 3,0Z" class="point" transform="translate(396.44,115.86)" style="opacity:1;stroke-width:0;fill:#636efa;fill-opacity:1"/><path d="M3,0A3,3 0 1,1 0,-3A3,3 0 0,1 3,0Z" class="point" transform="translate(52.17,272.12)" style="opacity:1;stroke-width:0;fill:#636efa;fill-opacity:1"/><path d="M3,0A3,3 0 1,1 0,-3A3,3 0 0,1 3,0Z" class="point" transform="translate(379.11,135.58)" style="opacity:1;stroke-width:0;fill:#636efa;fill-opacity:1"/><path d="M3,0A3,3 0 1,1 0,-3A3,3 0 0,1 3,0Z" class="point" transform="translate(68.46,282.23)" style="opacity:1;stroke-width:0;fill:#636efa;fill-opacity:1"/><path d="M3,0A3,3 0 1,1 0,-3A3,3 0 0,1 3,0Z" class="point" transform="translate(346.7,109.03)" style="opacity:1;stroke-width:0;fill:#636efa;fill-opacity:1"/><path d="M3,0A3,3 0 1,1 0,-3A3,3 0 0,1 3,0Z" class="point" transform="translate(565.24,50.62)" style="opacity:1;stroke-width:0;fill:#636efa;fill-opacity:1"/><path d="M3,0A3,3 0 1,1 0,-3A3,3 0 0,1 3,0Z" class="point" transform="translate(346.64,128.98)" style="opacity:1;stroke-width:0;fill:#636efa;fill-opacity:1"/><path d="M3,0A3,3 0 1,1 0,-3A3,3 0 0,1 3,0Z" class="point" transform="translate(220.96,240.42)" style="opacity:1;stroke-width:0;fill:#636efa;fill-opacity:1"/><path d="M3,0A3,3 0 1,1 0,-3A3,3 0 0,1 3,0Z" class="point" transform="translate(508.4,76.6)" style="opacity:1;stroke-width:0;fill:#636efa;fill-opacity:1"/><path d="M3,0A3,3 0 1,1 0,-3A3,3 0 0,1 3,0Z" class="point" transform="translate(114.05,257.26)" style="opacity:1;stroke-width:0;fill:#636efa;fill-opacity:1"/><path d="M3,0A3,3 0 1,1 0,-3A3,3 0 0,1 3,0Z" class="point" transform="translate(509.83,84.52)" style="opacity:1;stroke-width:0;fill:#636efa;fill-opacity:1"/><path d="M3,0A3,3 0 1,1 0,-3A3,3 0 0,1 3,0Z" class="point" transform="translate(262.32,162.65)" style="opacity:1;stroke-width:0;fill:#636efa;fill-opacity:1"/><path d="M3,0A3,3 0 1,1 0,-3A3,3 0 0,1 3,0Z" class="point" transform="translate(91.47,274.79)" style="opacity:1;stroke-width:0;fill:#636efa;fill-opacity:1"/><path d="M3,0A3,3 0 1,1 0,-3A3,3 0 0,1 3,0Z" class="point" transform="translate(334.19,165.99)" style="opacity:1;stroke-width:0;fill:#636efa;fill-opacity:1"/><path d="M3,0A3,3 0 1,1 0,-3A3,3 0 0,1 3,0Z" class="point" transform="translate(117.11,248.44)" style="opacity:1;stroke-width:0;fill:#636efa;fill-opacity:1"/><path d="M3,0A3,3 0 1,1 0,-3A3,3 0 0,1 3,0Z" class="point" transform="translate(76.06,266.06)" style="opacity:1;stroke-width:0;fill:#636efa;fill-opacity:1"/><path d="M3,0A3,3 0 1,1 0,-3A3,3 0 0,1 3,0Z" class="point" transform="translate(197.03,233.78)" style="opacity:1;stroke-width:0;fill:#636efa;fill-opacity:1"/><path d="M3,0A3,3 0 1,1 0,-3A3,3 0 0,1 3,0Z" class="point" transform="translate(492.72,84.7)" style="opacity:1;stroke-width:0;fill:#636efa;fill-opacity:1"/><path d="M3,0A3,3 0 1,1 0,-3A3,3 0 0,1 3,0Z" class="point" transform="translate(213.43,197.98)" style="opacity:1;stroke-width:0;fill:#636efa;fill-opacity:1"/><path d="M3,0A3,3 0 1,1 0,-3A3,3 0 0,1 3,0Z" class="point" transform="translate(176.76,223.91)" style="opacity:1;stroke-width:0;fill:#636efa;fill-opacity:1"/><path d="M3,0A3,3 0 1,1 0,-3A3,3 0 0,1 3,0Z" class="point" transform="translate(304.67,186.04)" style="opacity:1;stroke-width:0;fill:#636efa;fill-opacity:1"/><path d="M3,0A3,3 0 1,1 0,-3A3,3 0 0,1 3,0Z" class="point" transform="translate(183.39,239.86)" style="opacity:1;stroke-width:0;fill:#636efa;fill-opacity:1"/><path d="M3,0A3,3 0 1,1 0,-3A3,3 0 0,1 3,0Z" class="point" transform="translate(333.85,133.28)" style="opacity:1;stroke-width:0;fill:#636efa;fill-opacity:1"/><path d="M3,0A3,3 0 1,1 0,-3A3,3 0 0,1 3,0Z" class="point" transform="translate(189.03,235.13)" style="opacity:1;stroke-width:0;fill:#636efa;fill-opacity:1"/><path d="M3,0A3,3 0 1,1 0,-3A3,3 0 0,1 3,0Z" class="point" transform="translate(34.5,296.66)" style="opacity:1;stroke-width:0;fill:#636efa;fill-opacity:1"/><path d="M3,0A3,3 0 1,1 0,-3A3,3 0 0,1 3,0Z" class="point" transform="translate(55.99,277.55)" style="opacity:1;stroke-width:0;fill:#636efa;fill-opacity:1"/><path d="M3,0A3,3 0 1,1 0,-3A3,3 0 0,1 3,0Z" class="point" transform="translate(254.05,200.67)" style="opacity:1;stroke-width:0;fill:#636efa;fill-opacity:1"/><path d="M3,0A3,3 0 1,1 0,-3A3,3 0 0,1 3,0Z" class="point" transform="translate(363.45,133.14)" style="opacity:1;stroke-width:0;fill:#636efa;fill-opacity:1"/><path d="M3,0A3,3 0 1,1 0,-3A3,3 0 0,1 3,0Z" class="point" transform="translate(512.94,59.35)" style="opacity:1;stroke-width:0;fill:#636efa;fill-opacity:1"/><path d="M3,0A3,3 0 1,1 0,-3A3,3 0 0,1 3,0Z" class="point" transform="translate(53.53,247.69)" style="opacity:1;stroke-width:0;fill:#636efa;fill-opacity:1"/><path d="M3,0A3,3 0 1,1 0,-3A3,3 0 0,1 3,0Z" class="point" transform="translate(503.77,59.04)" style="opacity:1;stroke-width:0;fill:#636efa;fill-opacity:1"/><path d="M3,0A3,3 0 1,1 0,-3A3,3 0 0,1 3,0Z" class="point" transform="translate(312.88,148.97)" style="opacity:1;stroke-width:0;fill:#636efa;fill-opacity:1"/><path d="M3,0A3,3 0 1,1 0,-3A3,3 0 0,1 3,0Z" class="point" transform="translate(305.75,164.14)" style="opacity:1;stroke-width:0;fill:#636efa;fill-opacity:1"/><path d="M3,0A3,3 0 1,1 0,-3A3,3 0 0,1 3,0Z" class="point" transform="translate(144,212.15)" style="opacity:1;stroke-width:0;fill:#636efa;fill-opacity:1"/><path d="M3,0A3,3 0 1,1 0,-3A3,3 0 0,1 3,0Z" class="point" transform="translate(51.67,280.05)" style="opacity:1;stroke-width:0;fill:#636efa;fill-opacity:1"/><path d="M3,0A3,3 0 1,1 0,-3A3,3 0 0,1 3,0Z" class="point" transform="translate(232.03,199.47)" style="opacity:1;stroke-width:0;fill:#636efa;fill-opacity:1"/><path d="M3,0A3,3 0 1,1 0,-3A3,3 0 0,1 3,0Z" class="point" transform="translate(329.39,199.75)" style="opacity:1;stroke-width:0;fill:#636efa;fill-opacity:1"/><path d="M3,0A3,3 0 1,1 0,-3A3,3 0 0,1 3,0Z" class="point" transform="translate(256.86,191.89)" style="opacity:1;stroke-width:0;fill:#636efa;fill-opacity:1"/><path d="M3,0A3,3 0 1,1 0,-3A3,3 0 0,1 3,0Z" class="point" transform="translate(563.2,39.68)" style="opacity:1;stroke-width:0;fill:#636efa;fill-opacity:1"/><path d="M3,0A3,3 0 1,1 0,-3A3,3 0 0,1 3,0Z" class="point" transform="translate(353.55,131.57)" style="opacity:1;stroke-width:0;fill:#636efa;fill-opacity:1"/><path d="M3,0A3,3 0 1,1 0,-3A3,3 0 0,1 3,0Z" class="point" transform="translate(496.57,95.87)" style="opacity:1;stroke-width:0;fill:#636efa;fill-opacity:1"/><path d="M3,0A3,3 0 1,1 0,-3A3,3 0 0,1 3,0Z" class="point" transform="translate(320.71,144.63)" style="opacity:1;stroke-width:0;fill:#636efa;fill-opacity:1"/><path d="M3,0A3,3 0 1,1 0,-3A3,3 0 0,1 3,0Z" class="point" transform="translate(446.53,104.35)" style="opacity:1;stroke-width:0;fill:#636efa;fill-opacity:1"/><path d="M3,0A3,3 0 1,1 0,-3A3,3 0 0,1 3,0Z" class="point" transform="translate(269.22,210.23)" style="opacity:1;stroke-width:0;fill:#636efa;fill-opacity:1"/><path d="M3,0A3,3 0 1,1 0,-3A3,3 0 0,1 3,0Z" class="point" transform="translate(106.2,276.65)" style="opacity:1;stroke-width:0;fill:#636efa;fill-opacity:1"/><path d="M3,0A3,3 0 1,1 0,-3A3,3 0 0,1 3,0Z" class="point" transform="translate(174.02,204.82)" style="opacity:1;stroke-width:0;fill:#636efa;fill-opacity:1"/><path d="M3,0A3,3 0 1,1 0,-3A3,3 0 0,1 3,0Z" class="point" transform="translate(338.27,155.48)" style="opacity:1;stroke-width:0;fill:#636efa;fill-opacity:1"/><path d="M3,0A3,3 0 1,1 0,-3A3,3 0 0,1 3,0Z" class="point" transform="translate(391.73,125.16)" style="opacity:1;stroke-width:0;fill:#636efa;fill-opacity:1"/><path d="M3,0A3,3 0 1,1 0,-3A3,3 0 0,1 3,0Z" class="point" transform="translate(291.93,165.63)" style="opacity:1;stroke-width:0;fill:#636efa;fill-opacity:1"/><path d="M3,0A3,3 0 1,1 0,-3A3,3 0 0,1 3,0Z" class="point" transform="translate(108.19,257.82)" style="opacity:1;stroke-width:0;fill:#636efa;fill-opacity:1"/><path d="M3,0A3,3 0 1,1 0,-3A3,3 0 0,1 3,0Z" class="point" transform="translate(72.84,300.25)" style="opacity:1;stroke-width:0;fill:#636efa;fill-opacity:1"/><path d="M3,0A3,3 0 1,1 0,-3A3,3 0 0,1 3,0Z" class="point" transform="translate(349.61,133.16)" style="opacity:1;stroke-width:0;fill:#636efa;fill-opacity:1"/><path d="M3,0A3,3 0 1,1 0,-3A3,3 0 0,1 3,0Z" class="point" transform="translate(548.76,54)" style="opacity:1;stroke-width:0;fill:#636efa;fill-opacity:1"/><path d="M3,0A3,3 0 1,1 0,-3A3,3 0 0,1 3,0Z" class="point" transform="translate(405.73,128.98)" style="opacity:1;stroke-width:0;fill:#636efa;fill-opacity:1"/><path d="M3,0A3,3 0 1,1 0,-3A3,3 0 0,1 3,0Z" class="point" transform="translate(322.1,139.54)" style="opacity:1;stroke-width:0;fill:#636efa;fill-opacity:1"/><path d="M3,0A3,3 0 1,1 0,-3A3,3 0 0,1 3,0Z" class="point" transform="translate(339.6,157.1)" style="opacity:1;stroke-width:0;fill:#636efa;fill-opacity:1"/><path d="M3,0A3,3 0 1,1 0,-3A3,3 0 0,1 3,0Z" class="point" transform="translate(281.41,169)" style="opacity:1;stroke-width:0;fill:#636efa;fill-opacity:1"/><path d="M3,0A3,3 0 1,1 0,-3A3,3 0 0,1 3,0Z" class="point" transform="translate(352.41,117.47)" style="opacity:1;stroke-width:0;fill:#636efa;fill-opacity:1"/><path d="M3,0A3,3 0 1,1 0,-3A3,3 0 0,1 3,0Z" class="point" transform="translate(252.93,177.01)" style="opacity:1;stroke-width:0;fill:#636efa;fill-opacity:1"/><path d="M3,0A3,3 0 1,1 0,-3A3,3 0 0,1 3,0Z" class="point" transform="translate(371.93,143.1)" style="opacity:1;stroke-width:0;fill:#636efa;fill-opacity:1"/><path d="M3,0A3,3 0 1,1 0,-3A3,3 0 0,1 3,0Z" class="point" transform="translate(84,262.71)" style="opacity:1;stroke-width:0;fill:#636efa;fill-opacity:1"/><path d="M3,0A3,3 0 1,1 0,-3A3,3 0 0,1 3,0Z" class="point" transform="translate(268.87,164.26)" style="opacity:1;stroke-width:0;fill:#636efa;fill-opacity:1"/><path d="M3,0A3,3 0 1,1 0,-3A3,3 0 0,1 3,0Z" class="point" transform="translate(245.39,211.36)" style="opacity:1;stroke-width:0;fill:#636efa;fill-opacity:1"/><path d="M3,0A3,3 0 1,1 0,-3A3,3 0 0,1 3,0Z" class="point" transform="translate(209.28,197.08)" style="opacity:1;stroke-width:0;fill:#636efa;fill-opacity:1"/><path d="M3,0A3,3 0 1,1 0,-3A3,3 0 0,1 3,0Z" class="point" transform="translate(563.69,47.42)" style="opacity:1;stroke-width:0;fill:#636efa;fill-opacity:1"/><path d="M3,0A3,3 0 1,1 0,-3A3,3 0 0,1 3,0Z" class="point" transform="translate(231.27,193.79)" style="opacity:1;stroke-width:0;fill:#636efa;fill-opacity:1"/><path d="M3,0A3,3 0 1,1 0,-3A3,3 0 0,1 3,0Z" class="point" transform="translate(501.84,71.18)" style="opacity:1;stroke-width:0;fill:#636efa;fill-opacity:1"/><path d="M3,0A3,3 0 1,1 0,-3A3,3 0 0,1 3,0Z" class="point" transform="translate(580.5,46.85)" style="opacity:1;stroke-width:0;fill:#636efa;fill-opacity:1"/><path d="M3,0A3,3 0 1,1 0,-3A3,3 0 0,1 3,0Z" class="point" transform="translate(468.98,104.31)" style="opacity:1;stroke-width:0;fill:#636efa;fill-opacity:1"/><path d="M3,0A3,3 0 1,1 0,-3A3,3 0 0,1 3,0Z" class="point" transform="translate(464.5,92.76)" style="opacity:1;stroke-width:0;fill:#636efa;fill-opacity:1"/><path d="M3,0A3,3 0 1,1 0,-3A3,3 0 0,1 3,0Z" class="point" transform="translate(370.71,122.56)" style="opacity:1;stroke-width:0;fill:#636efa;fill-opacity:1"/><path d="M3,0A3,3 0 1,1 0,-3A3,3 0 0,1 3,0Z" class="point" transform="translate(452.74,85.89)" style="opacity:1;stroke-width:0;fill:#636efa;fill-opacity:1"/><path d="M3,0A3,3 0 1,1 0,-3A3,3 0 0,1 3,0Z" class="point" transform="translate(254.48,172.4)" style="opacity:1;stroke-width:0;fill:#636efa;fill-opacity:1"/><path d="M3,0A3,3 0 1,1 0,-3A3,3 0 0,1 3,0Z" class="point" transform="translate(201.02,226.25)" style="opacity:1;stroke-width:0;fill:#636efa;fill-opacity:1"/><path d="M3,0A3,3 0 1,1 0,-3A3,3 0 0,1 3,0Z" class="point" transform="translate(109.49,272.24)" style="opacity:1;stroke-width:0;fill:#636efa;fill-opacity:1"/><path d="M3,0A3,3 0 1,1 0,-3A3,3 0 0,1 3,0Z" class="point" transform="translate(198.79,216.48)" style="opacity:1;stroke-width:0;fill:#636efa;fill-opacity:1"/><path d="M3,0A3,3 0 1,1 0,-3A3,3 0 0,1 3,0Z" class="point" transform="translate(433.28,112.81)" style="opacity:1;stroke-width:0;fill:#636efa;fill-opacity:1"/></g></g><g class="trace scatter tracec375ee" style="stroke-miterlimit:2;opacity:1"><g class="lines"><path d="M28.46,293.42L583.96,35.39" class="js-line" style="vector-effect:non-scaling-stroke;fill:none;stroke:#ef553b;stroke-opacity:1;stroke-width:2px;opacity:1"/></g></g></g></g><path d="M0,0" class="xlines-above crisp" style="fill:none"/><path d="M0,0" class="ylines-above crisp" style="fill:none"/><g class="xaxislayer-above"><g class="xtick"><text x="0" y="433" text-anchor="middle" transform="translate(108.46000000000001,0)" style="font-family:'Open Sans',verdana,arial,sans-serif;font-size:12px;fill:#2a3f5f;fill-opacity:1;white-space:pre;opacity:1">0</text></g><g class="xtick"><text x="0" y="433" text-anchor="middle" transform="translate(262.77,0)" style="font-family:'Open Sans',verdana,arial,sans-serif;font-size:12px;fill:#2a3f5f;fill-opacity:1;white-space:pre;opacity:1">5</text></g><g class="xtick"><text x="0" y="433" text-anchor="middle" transform="translate(417.07,0)" style="font-family:'Open Sans',verdana,arial,sans-serif;font-size:12px;fill:#2a3f5f;fill-opacity:1;white-space:pre;opacity:1">10</text></g><g class="xtick"><text x="0" y="433" text-anchor="middle" transform="translate(571.38,0)" style="font-family:'Open Sans',verdana,arial,sans-serif;font-size:12px;fill:#2a3f5f;fill-opacity:1;white-space:pre;opacity:1">15</text></g></g><g class="yaxislayer-above"><g class="ytick"><text x="79" y="4.2" text-anchor="end" transform="translate(0,393.14)" style="font-family:'Open Sans',verdana,arial,sans-serif;font-size:12px;fill:#2a3f5f;fill-opacity:1;white-space:pre;opacity:1">30</text></g><g class="ytick"><text x="79" y="4.2" text-anchor="end" transform="translate(0,357.33)" style="font-family:'Open Sans',verdana,arial,sans-serif;font-size:12px;fill:#2a3f5f;fill-opacity:1;white-space:pre;opacity:1">35</text></g><g class="ytick"><text x="79" y="4.2" text-anchor="end" transform="translate(0,321.52)" style="font-family:'Open Sans',verdana,arial,sans-serif;font-size:12px;fill:#2a3f5f;fill-opacity:1;white-space:pre;opacity:1">40</text></g><g class="ytick"><text x="79" y="4.2" text-anchor="end" transform="translate(0,285.71000000000004)" style="font-family:'Open Sans',verdana,arial,sans-serif;font-size:12px;fill:#2a3f5f;fill-opacity:1;white-space:pre;opacity:1">45</text></g><g class="ytick"><text x="79" y="4.2" text-anchor="end" transform="translate(0,249.89)" style="font-family:'Open Sans',verdana,arial,sans-serif;font-size:12px;fill:#2a3f5f;fill-opacity:1;white-space:pre;opacity:1">50</text></g><g class="ytick"><text x="79" y="4.2" text-anchor="end" transform="translate(0,214.07999999999998)" style="font-family:'Open Sans',verdana,arial,sans-serif;font-size:12px;fill:#2a3f5f;fill-opacity:1;white-space:pre;opacity:1">55</text></g><g class="ytick"><text x="79" y="4.2" text-anchor="end" transform="translate(0,178.26999999999998)" style="font-family:'Open Sans',verdana,arial,sans-serif;font-size:12px;fill:#2a3f5f;fill-opacity:1;white-space:pre;opacity:1">60</text></g><g class="ytick"><text x="79" y="4.2" text-anchor="end" transform="translate(0,142.46)" style="font-family:'Open Sans',verdana,arial,sans-serif;font-size:12px;fill:#2a3f5f;fill-opacity:1;white-space:pre;opacity:1">65</text></g><g class="ytick"><text x="79" y="4.2" text-anchor="end" transform="translate(0,106.65)" style="font-family:'Open Sans',verdana,arial,sans-serif;font-size:12px;fill:#2a3f5f;fill-opacity:1;white-space:pre;opacity:1">70</text></g></g></g></g><defs id="topdefs-397c44"><clipPath id="legend397c44"><rect width="81" height="29" x="0" y="0"/></clipPath></defs><g class="infolayer"><g class="legend" pointer-events="all" transform="translate(707.3,100)"><rect width="81" height="29" x="0" y="0" class="bg" shape-rendering="crispEdges" style="stroke:#444;stroke-opacity:1;fill:#fff;fill-opacity:1;stroke-width:0"/><g class="scrollbox" clip-path="url(#legend397c44)"><g class="groups"><g class="traces" transform="translate(0,14.5)" style="opacity:1"><text x="40" y="4.68" class="legendtext" text-anchor="start" style="font-family:'Open Sans',verdana,arial,sans-serif;font-size:12px;fill:#2a3f5f;fill-opacity:1;white-space:pre">Model</text><g class="layers" style="opacity:1"><g class="legendlines"><path d="M5,0h30" class="js-line" style="fill:none;stroke:#ef553b;stroke-opacity:1;stroke-width:2px"/></g></g><rect width="75.203" height="19" x="0" y="-9.5" class="legendtoggle" style="fill:#000;fill-opacity:0"/></g></g></g><rect width="0" height="0" x="0" y="0" class="scrollbar" rx="20" ry="3" style="fill:#808ba4;fill-opacity:1"/></g><g class="g-gtitle"><text x="40" y="50" class="gtitle" dy="0em" text-anchor="start" style="font-family:'Open Sans',verdana,arial,sans-serif;font-size:17px;fill:#2a3f5f;opacity:1;font-weight:400;white-space:pre">Heights vs Age of people</text></g><g class="g-xtitle"><text x="387.5" y="461.8" class="xtitle" text-anchor="middle" style="font-family:'Open Sans',verdana,arial,sans-serif;font-size:14px;fill:#2a3f5f;opacity:1;font-weight:400;white-space:pre">Age (years)</text></g><g class="g-ytitle"><text x="40.466" y="260" class="ytitle" text-anchor="middle" transform="rotate(-90,40.465625,260)" style="font-family:'Open Sans',verdana,arial,sans-serif;font-size:14px;fill:#2a3f5f;opacity:1;font-weight:400;white-space:pre">Height (inches)</text></g></g></svg>