<svg xmlns="http://www.w3.org/2000/svg" xmlns:xlink="http://www.w3.org/1999/xlink" width="800" height="500" class="main-svg" viewBox="0 0 800 500"><rect width="800" height="500" x="0" y="0" style="fill:#fff;fill-opacity:1"/><defs id="defs-300a50"><g class="clips"><clipPath id="clip300a50xyplot" class="plotclip"><rect width="576" height="320"/></clipPath><clipPath id="clip300a50x" class="axesclip"><rect width="576" height="500" x="80" y="0"/></clipPath><clipPath id="clip300a50y" class="axesclip"><rect width="800" height="320" x="0" y="100"/></clipPath><clipPath id="clip300a50xy" class="axesclip"><rect width="576" height="320" x="80" y="100"/></clipPath></g></defs><g class="bglayer"><rect width="576" height="320" x="80" y="100" class="bg" style="fill:#e5ecf6;fill-opacity:1;stroke-width:0"/></g><g class="cartesianlayer"><g class="subplot xy"><g class="gridlayer"><g class="x"><path d="M0,100v320" class="xgrid crisp" transform="translate(234.37,0)" style="stroke:#fff;stroke-opacity:1;stroke-width:1px"/><path d="M0,100v320" class="xgrid crisp" transform="translate(361.14,0)" style="stroke:#fff;stroke-opacity:1;stroke-width:1px"/><path d="M0,100v320" class="xgrid crisp" transform="translate(487.92,0)" style="stroke:#fff;stroke-opacity:1;stroke-width:1px"/><path d="M0,100v320" class="xgrid crisp" transform="translate(614.7,0)" style="stroke:#fff;stroke-opacity:1;stroke-width:1px"/></g><g class="y"><path d="M80,0h576" class="ygrid crisp" transform="translate(0,393.67)" style="stroke:#fff;stroke-opacity:1;stroke-width:1px"/><path d="M80,0h576" class="ygrid crisp" transform="translate(0,327.36)" style="stroke:#fff;stroke-opacity:1;stroke-width:1px"/><path d="M80,0h576" class="ygrid crisp" transform="translate(0,261.05)" style="stroke:#fff;stroke-opacity:1;stroke-width:1px"/><path d="M80,0h576" class="ygrid crisp" transform="translate(0,194.74)" style="stroke:#fff;stroke-opacity:1;stroke-width:1px"/><path d="M80,0h576" class="ygrid crisp" transform="translate(0,128.43)" style="stroke:#fff;stroke-opacity:1;stroke-width:1px"/></g></g><g class="zerolinelayer"><path d="M0,100v320" class="xzl zl crisp" transform="translate(107.59,0)" style="stroke:#fff;stroke-opacity:1;stroke-width:2px"/></g><path class="xlines-below"/><path class="ylines-below"/><g class="plot" clip-path="url(#clip300a50xyplot)" transform="translate(80,100)"><g class="scatterlayer mlayer"><g class="trace scatter tracefe6203" style="stroke-miterlimit:2;opacity:1"><g class="points"><path d="M3,0A3,3 0 1,1 0,-3A3,3 0 0,1 3,0Z" class="point" transform="translate(402.04,97.21)" style="opacity:1;stroke-width:0;fill:#636efa;fill-opacity:1"/><path d="M3,0A3,3 0 1,1 0,-3A3,3 0 0,1 3,0Z" class="point" transform="translate(106.39,252.91)" style="opacity:1;stroke-width:0;fill:#636efa;fill-opacity:1"/><path d="M3,0A3,3 0 1,1 0,-3A3,3 0 0,1 3,0Z" class="point" transform="translate(211.85,181.52)" style="opacity:1;stroke-width:0;fill:#636efa;fill-opacity:1"/><path d="M3,0A3,3 0 1,1 0,-3A3,3 0 0,1 3,0Z" class="point" transform="translate(73.61,299.47)" style="opacity:1;stroke-width:0;fill:#636efa;fill-opacity:1"/><path d="M3,0A3,3 0 1,1 0,-3A3,3 0 0,1 3,0Z" class="point" transform="translate(452.39,40.57)" style="opacity:1;stroke-width:0;fill:#636efa;fill-opacity:1"/><path d="M3,0A3,3 0 1,1 0,-3A3,3 0 0,1 3,0Z" class="point" transform="translate(163.27,198.54)" style="opacity:1;stroke-width:0;fill:#636efa;fill-opacity:1"/><path d="M3,0A3,3 0 1,1 0,-3A3,3 0 0,1 3,0Z" class="point" transform="translate(247.06,176.21)" style="opacity:1;stroke-width:0;fill:#636efa;fill-opacity:1"/><path d="M3,0A3,3 0 1,1 0,-3A3,3 0 0,1 3,0Z" class="point" transform="translate(134.23,241.75)" style="opacity:1;stroke-width:0;fill:#636efa;fill-opacity:1"/><path d="M3,0A3,3 0 1,1 0,-3A3,3 0 0,1 3,0Z" class="point" transform="translate(214.12,195.58)" style="opacity:1;stroke-width:0;fill:#636efa;fill-opacity:1"/><path d="M3,0A3,3 0 1,1 0,-3A3,3 0 0,1 3,0Z" class="point" transform="translate(69.89,266.76)" style="opacity:1;stroke-width:0;fill:#636efa;fill-opacity:1"/><path d="M3,0A3,3 0 1,1 0,-3A3,3 0 0,1 3,0Z" class="point" transform="translate(237.96,186.63)" style="opacity:1;stroke-width:0;fill:#636efa;fill-opacity:1"/><path d="M3,0A3,3 0 1,1 0,-3A3,3 0 0,1 3,0Z" class="point" transform="translate(401.57,118.24)" style="opacity:1;stroke-width:0;fill:#636efa;fill-opacity:1"/><path d="M3,0A3,3 0 1,1 0,-3A3,3 0 0,1 3,0Z" class="point" transform="translate(415.16,95.61)" style="opacity:1;stroke-width:0;fill:#636efa;fill-opacity:1"/><path d="M3,0A3,3 0 1,1 0,-3A3,3 0 0,1 3,0Z" class="point" transform="translate(449.89,66.65)" style="opacity:1;stroke-width:0;fill:#636efa;fill-opacity:1"/><path d="M3,0A3,3 0 1,1 0,-3A3,3 0 0,1 3,0Z" class="point" transform="translate(49.37,265.52)" style="opacity:1;stroke-width:0;fill:#636efa;fill-opacity:1"/><path d="M3,0A3,3 0 1,1 0,-3A3,3 0 0,1 3,0Z" class="point" transform="translate(241.42,192.23)" style="opacity:1;stroke-width:0;fill:#636efa;fill-opacity:1"/><path d="M3,0A3,3 0 1,1 0,-3A3,3 0 0,1 3,0Z" class="point" transform="translate(329.92,129.54)" style="opacity:1;stroke-width:0;fill:#636efa;fill-opacity:1"/><path d="M3,0A3,3 0 1,1 0,-3A3,3 0 0,1 3,0Z" class="point" transform="translate(47.07,274.21)" style="opacity:1;stroke-width:0;fill:#636efa;fill-opacity:1"/><path d="M3,0A3,3 0 1,1 0,-3A3,3 0 0,1 3,0Z" class="point" transform="translate(315.68,147.8)" style="opacity:1;stroke-width:0;fill:#636efa;fill-opacity:1"/><path d="M3,0A3,3 0 1,1 0,-3A3,3 0 0,1 3,0Z" class="point" transform="translate(60.45,283.57)" style="opacity:1;stroke-width:0;fill:#636efa;fill-opacity:1"/><path d="M3,0A3,3 0 1,1 0,-3A3,3 0 0,1 3,0Z" class="point" transform="translate(289.06,123.22)" style="opacity:1;stroke-width:0;fill:#636efa;fill-opacity:1"/><path d="M3,0A3,3 0 1,1 0,-3A3,3 0 0,1 3,0Z" class="point" transform="translate(468.61,69.14)" style="opacity:1;stroke-width:0;fill:#636efa;fill-opacity:1"/><path d="M3,0A3,3 0 1,1 0,-3A3,3 0 0,1 3,0Z" class="point" transform="translate(289.01,141.69)" style="opacity:1;stroke-width:0;fill:#636efa;fill-opacity:1"/><path d="M3,0A3,3 0 1,1 0,-3A3,3 0 0,1 3,0Z" class="point" transform="translate(185.75,244.86)" style="opacity:1;stroke-width:0;fill:#636efa;fill-opacity:1"/><path d="M3,0A3,3 0 1,1 0,-3A3,3 0 0,1 3,0Z" class="point" transform="translate(421.91,93.2)" style="opacity:1;stroke-width:0;fill:#636efa;fill-opacity:1"/><path d="M3,0A3,3 0 1,1 0,-3A3,3 0 0,1 3,0Z" class="point" transform="translate(97.91,260.45)" style="opacity:1;stroke-width:0;fill:#636efa;fill-opacity:1"/><path d="M3,0A3,3 0 1,1 0,-3A3,3 0 0,1 3,0Z" class="point" transform="translate(423.08,100.53)" style="opacity:1;stroke-width:0;fill:#636efa;fill-opacity:1"/><path d="M3,0A3,3 0 1,1 0,-3A3,3 0 0,1 3,0Z" class="point" transform="translate(219.73,172.87)" style="opacity:1;stroke-width:0;fill:#636efa;fill-opacity:1"/><path d="M3,0A3,3 0 1,1 0,-3A3,3 0 0,1 3,0Z" class="point" transform="translate(79.36,276.68)" style="opacity:1;stroke-width:0;fill:#636efa;fill-opacity:1"/><path d="M3,0A3,3 0 1,1 0,-3A3,3 0 0,1 3,0Z" class="point" transform="translate(278.78,175.95)" style="opacity:1;stroke-width:0;fill:#636efa;fill-opacity:1"/><path d="M3,0A3,3 0 1,1 0,-3A3,3 0 0,1 3,0Z" class="point" transform="translate(100.42,252.28)" style="opacity:1;stroke-width:0;fill:#636efa;fill-opacity:1"/><path d="M3,0A3,3 0 1,1 0,-3A3,3 0 0,1 3,0Z" class="point" transform="translate(66.69,268.59)" style="opacity:1;stroke-width:0;fill:#636efa;fill-opacity:1"/><path d="M3,0A3,3 0 1,1 0,-3A3,3 0 0,1 3,0Z" class="point" transform="translate(166.08,238.72)" style="opacity:1;stroke-width:0;fill:#636efa;fill-opacity:1"/><path d="M3,0A3,3 0 1,1 0,-3A3,3 0 0,1 3,0Z" class="point" transform="translate(409.03,100.69)" style="opacity:1;stroke-width:0;fill:#636efa;fill-opacity:1"/><path d="M3,0A3,3 0 1,1 0,-3A3,3 0 0,1 3,0Z" class="point" transform="translate(179.56,205.57)" style="opacity:1;stroke-width:0;fill:#636efa;fill-opacity:1"/><path d="M3,0A3,3 0 1,1 0,-3A3,3 0 0,1 3,0Z" class="point" transform="translate(149.43,229.58)" style="opacity:1;stroke-width:0;fill:#636efa;fill-opacity:1"/><path d="M3,0A3,3 0 1,1 0,-3A3,3 0 0,1 3,0Z" class="point" transform="translate(254.52,194.52)" style="opacity:1;stroke-width:0;fill:#636efa;fill-opacity:1"/><path d="M3,0A3,3 0 1,1 0,-3A3,3 0 0,1 3,0Z" class="point" transform="translate(154.88,244.34)" style="opacity:1;stroke-width:0;fill:#636efa;fill-opacity:1"/><path d="M3,0A3,3 0 1,1 0,-3A3,3 0 0,1 3,0Z" class="point" transform="translate(278.5,145.67)" style="opacity:1;stroke-width:0;fill:#636efa;fill-opacity:1"/><path d="M3,0A3,3 0 1,1 0,-3A3,3 0 0,1 3,0Z" class="point" transform="translate(159.51,239.96)" style="opacity:1;stroke-width:0;fill:#636efa;fill-opacity:1"/><path d="M3,0A3,3 0 1,1 0,-3A3,3 0 0,1 3,0Z" class="point" transform="translate(32.55,296.93)" style="opacity:1;stroke-width:0;fill:#636efa;fill-opacity:1"/><path d="M3,0A3,3 0 1,1 0,-3A3,3 0 0,1 3,0Z" class="point" transform="translate(50.21,279.23)" style="opacity:1;stroke-width:0;fill:#636efa;fill-opacity:1"/><path d="M3,0A3,3 0 1,1 0,-3A3,3 0 0,1 3,0Z" class="point" transform="translate(212.93,208.06)" style="opacity:1;stroke-width:0;fill:#636efa;fill-opacity:1"/><path d="M3,0A3,3 0 1,1 0,-3A3,3 0 0,1 3,0Z" class="point" transform="translate(302.81,145.54)" style="opacity:1;stroke-width:0;fill:#636efa;fill-opacity:1"/><path d="M3,0A3,3 0 1,1 0,-3A3,3 0 0,1 3,0Z" class="point" transform="translate(425.64,77.23)" style="opacity:1;stroke-width:0;fill:#636efa;fill-opacity:1"/><path d="M3,0A3,3 0 1,1 0,-3A3,3 0 0,1 3,0Z" class="point" transform="translate(48.18,251.59)" style="opacity:1;stroke-width:0;fill:#636efa;fill-opacity:1"/><path d="M3,0A3,3 0 1,1 0,-3A3,3 0 0,1 3,0Z" class="point" transform="translate(418.1,76.94)" style="opacity:1;stroke-width:0;fill:#636efa;fill-opacity:1"/><path d="M3,0A3,3 0 1,1 0,-3A3,3 0 0,1 3,0Z" class="point" transform="translate(261.27,160.2)" style="opacity:1;stroke-width:0;fill:#636efa;fill-opacity:1"/><path d="M3,0A3,3 0 1,1 0,-3A3,3 0 0,1 3,0Z" class="point" transform="translate(255.41,174.24)" style="opacity:1;stroke-width:0;fill:#636efa;fill-opacity:1"/><path d="M3,0A3,3 0 1,1 0,-3A3,3 0 0,1 3,0Z" class="point" transform="translate(122.51,218.69)" style="opacity:1;stroke-width:0;fill:#636efa;fill-opacity:1"/><path d="M3,0A3,3 0 1,1 0,-3A3,3 0 0,1 3,0Z" class="point" transform="translate(46.65,281.55)" style="opacity:1;stroke-width:0;fill:#636efa;fill-opacity:1"/><path d="M3,0A3,3 0 1,1 0,-3A3,3 0 0,1 3,0Z" class="point" transform="translate(194.84,206.94)" style="opacity:1;stroke-width:0;fill:#636efa;fill-opacity:1"/><path d="M3,0A3,3 0 1,1 0,-3A3,3 0 0,1 3,0Z" class="point" transform="translate(274.83,207.21)" style="opacity:1;stroke-width:0;fill:#636efa;fill-opacity:1"/><path d="M3,0A3,3 0 1,1 0,-3A3,3 0 0,1 3,0Z" class="point" transform="translate(215.24,199.94)" style="opacity:1;stroke-width:0;fill:#636efa;fill-opacity:1"/><path d="M3,0A3,3 0 1,1 0,-3A3,3 0 0,1 3,0Z" class="point" transform="translate(466.93,59.01)" style="opacity:1;stroke-width:0;fill:#636efa;fill-opacity:1"/><path d="M3,0A3,3 0 1,1 0,-3A3,3 0 0,1 3,0Z" class="point" transform="translate(294.69,144.09)" style="opacity:1;stroke-width:0;fill:#636efa;fill-opacity:1"/><path d="M3,0A3,3 0 1,1 0,-3A3,3 0 0,1 3,0Z" class="point" transform="translate(412.19,111.03)" style="opacity:1;stroke-width:0;fill:#636efa;fill-opacity:1"/><path d="M3,0A3,3 0 1,1 0,-3A3,3 0 0,1 3,0Z" class="point" transform="translate(267.7,156.18)" style="opacity:1;stroke-width:0;fill:#636efa;fill-opacity:1"/><path d="M3,0A3,3 0 1,1 0,-3A3,3 0 0,1 3,0Z" class="point" transform="translate(371.08,118.89)" style="opacity:1;stroke-width:0;fill:#636efa;fill-opacity:1"/><path d="M3,0A3,3 0 1,1 0,-3A3,3 0 0,1 3,0Z" class="point" transform="translate(225.4,216.91)" style="opacity:1;stroke-width:0;fill:#636efa;fill-opacity:1"/><path d="M3,0A3,3 0 1,1 0,-3A3,3 0 0,1 3,0Z" class="point" transform="translate(91.46,278.4)" style="opacity:1;stroke-width:0;fill:#636efa;fill-opacity:1"/><path d="M3,0A3,3 0 1,1 0,-3A3,3 0 0,1 3,0Z" class="point" transform="translate(147.18,211.9)" style="opacity:1;stroke-width:0;fill:#636efa;fill-opacity:1"/><path d="M3,0A3,3 0 1,1 0,-3A3,3 0 0,1 3,0Z" class="point" transform="translate(282.12,166.22)" style="opacity:1;stroke-width:0;fill:#636efa;fill-opacity:1"/><path d="M3,0A3,3 0 1,1 0,-3A3,3 0 0,1 3,0Z" class="point" transform="translate(326.06,138.15)" style="opacity:1;stroke-width:0;fill:#636efa;fill-opacity:1"/><path d="M3,0A3,3 0 1,1 0,-3A3,3 0 0,1 3,0Z" class="point" transform="translate(244.06,175.62)" style="opacity:1;stroke-width:0;fill:#636efa;fill-opacity:1"/><path d="M3,0A3,3 0 1,1 0,-3A3,3 0 0,1 3,0Z" class="point" transform="translate(93.1,260.97)" style="opacity:1;stroke-width:0;fill:#636efa;fill-opacity:1"/><path d="M3,0A3,3 0 1,1 0,-3A3,3 0 0,1 3,0Z" class="point" transform="translate(64.05,300.25)" style="opacity:1;stroke-width:0;fill:#636efa;fill-opacity:1"/><path d="M3,0A3,3 0 1,1 0,-3A3,3 0 0,1 3,0Z" class="point" transform="translate(291.45,145.56)" style="opacity:1;stroke-width:0;fill:#636efa;fill-opacity:1"/><path d="M3,0A3,3 0 1,1 0,-3A3,3 0 0,1 3,0Z" class="point" transform="translate(455.07,72.27)" style="opacity:1;stroke-width:0;fill:#636efa;fill-opacity:1"/><path d="M3,0A3,3 0 1,1 0,-3A3,3 0 0,1 3,0Z" class="point" transform="translate(337.55,141.69)" style="opacity:1;stroke-width:0;fill:#636efa;fill-opacity:1"/><path d="M3,0A3,3 0 1,1 0,-3A3,3 0 0,1 3,0Z" class="point" transform="translate(268.84,151.47)" style="opacity:1;stroke-width:0;fill:#636efa;fill-opacity:1"/><path d="M3,0A3,3 0 1,1 0,-3A3,3 0 0,1 3,0Z" class="point" transform="translate(283.22,167.72)" style="opacity:1;stroke-width:0;fill:#636efa;fill-opacity:1"/><path d="M3,0A3,3 0 1,1 0,-3A3,3 0 0,1 3,0Z" class="point" transform="translate(235.41,178.74)" style="opacity:1;stroke-width:0;fill:#636efa;fill-opacity:1"/><path d="M3,0A3,3 0 1,1 0,-3A3,3 0 0,1 3,0Z" class="point" transform="translate(293.74,131.04)" style="opacity:1;stroke-width:0;fill:#636efa;fill-opacity:1"/><path d="M3,0A3,3 0 1,1 0,-3A3,3 0 0,1 3,0Z" class="point" transform="translate(212.02,186.16)" style="opacity:1;stroke-width:0;fill:#636efa;fill-opacity:1"/><path d="M3,0A3,3 0 1,1 0,-3A3,3 0 0,1 3,0Z" class="point" transform="translate(309.79,154.76)" style="opacity:1;stroke-width:0;fill:#636efa;fill-opacity:1"/><path d="M3,0A3,3 0 1,1 0,-3A3,3 0 0,1 3,0Z" class="point" transform="translate(73.22,265.5)" style="opacity:1;stroke-width:0;fill:#636efa;fill-opacity:1"/><path d="M3,0A3,3 0 1,1 0,-3A3,3 0 0,1 3,0Z" class="point" transform="translate(225.11,174.35)" style="opacity:1;stroke-width:0;fill:#636efa;fill-opacity:1"/><path d="M3,0A3,3 0 1,1 0,-3A3,3 0 0,1 3,0Z" class="point" transform="translate(205.82,217.96)" style="opacity:1;stroke-width:0;fill:#636efa;fill-opacity:1"/><path d="M3,0A3,3 0 1,1 0,-3A3,3 0 0,1 3,0Z" class="point" transform="translate(176.15,204.74)" style="opacity:1;stroke-width:0;fill:#636efa;fill-opacity:1"/><path d="M3,0A3,3 0 1,1 0,-3A3,3 0 0,1 3,0Z" class="point" transform="translate(467.33,66.18)" style="opacity:1;stroke-width:0;fill:#636efa;fill-opacity:1"/><path d="M3,0A3,3 0 1,1 0,-3A3,3 0 0,1 3,0Z" class="point" transform="translate(194.22,201.69)" style="opacity:1;stroke-width:0;fill:#636efa;fill-opacity:1"/><path d="M3,0A3,3 0 1,1 0,-3A3,3 0 0,1 3,0Z" class="point" transform="translate(416.51,88.18)" style="opacity:1;stroke-width:0;fill:#636efa;fill-opacity:1"/><path d="M3,0A3,3 0 1,1 0,-3A3,3 0 0,1 3,0Z" class="point" transform="translate(481.15,65.66)" style="opacity:1;stroke-width:0;fill:#636efa;fill-opacity:1"/><path d="M3,0A3,3 0 1,1 0,-3A3,3 0 0,1 3,0Z" class="point" transform="translate(389.52,118.85)" style="opacity:1;stroke-width:0;fill:#636efa;fill-opacity:1"/><path d="M3,0A3,3 0 1,1 0,-3A3,3 0 0,1 3,0Z" class="point" transform="translate(385.84,108.16)" style="opacity:1;stroke-width:0;fill:#636efa;fill-opacity:1"/><path d="M3,0A3,3 0 1,1 0,-3A3,3 0 0,1 3,0Z" class="point" transform="translate(308.78,135.74)" style="opacity:1;stroke-width:0;fill:#636efa;fill-opacity:1"/><path d="M3,0A3,3 0 1,1 0,-3A3,3 0 0,1 3,0Z" class="point" transform="translate(376.17,101.8)" style="opacity:1;stroke-width:0;fill:#636efa;fill-opacity:1"/><path d="M3,0A3,3 0 1,1 0,-3A3,3 0 0,1 3,0Z" class="point" transform="translate(213.29,181.89)" style="opacity:1;stroke-width:0;fill:#636efa;fill-opacity:1"/><path d="M3,0A3,3 0 1,1 0,-3A3,3 0 0,1 3,0Z" class="point" transform="translate(169.36,231.74)" style="opacity:1;stroke-width:0;fill:#636efa;fill-opacity:1"/><path d="M3,0A3,3 0 1,1 0,-3A3,3 0 0,1 3,0Z" class="point" transform="translate(94.16,274.32)" style="opacity:1;stroke-width:0;fill:#636efa;fill-opacity:1"/><path d="M3,0A3,3 0 1,1 0,-3A3,3 0 0,1 3,0Z" class="point" transform="translate(167.53,222.69)" style="opacity:1;stroke-width:0;fill:#636efa;fill-opacity:1"/><path d="M3,0A3,3 0 1,1 0,-3A3,3 0 0,1 3,0Z" class="point" transform="translate(360.19,126.72)" style="opacity:1;stroke-width:0;fill:#636efa;fill-opacity:1"/></g></g><g class="trace scatter traced24da1" style="stroke-miterlimit:2;opacity:1"><g class="lines"><path d="M27.59,293.92L483.99,55.04" class="js-line" style="vector-effect:non-scaling-stroke;fill:none;stroke:#ef553b;stroke-opacity:1;stroke-width:2px;opacity:1"/></g></g><g class="trace scatter trace79890a" style="stroke-miterlimit:2;opacity:1"><g class="points"><path d="M10,0A10,10 0 1,1 0,-10A10,10 0 0,1 10,0Z" class="point" transform="translate(483.99,55.04)" style="opacity:1;stroke-width:2px;fill:purple;fill-opacity:1;stroke:purple;stroke-opacity:1"/><path d="M10,0A10,10 0 1,1 0,-10A10,10 0 0,1 10,0Z" class="point" transform="translate(509.34,41.77)" style="opacity:1;stroke-width:2px;fill:purple;fill-opacity:1;stroke:purple;stroke-opacity:1"/><path d="M10,0A10,10 0 1,1 0,-10A10,10 0 0,1 10,0Z" class="point" transform="translate(534.7,28.5)" style="opacity:1;stroke-width:2px;fill:purple;fill-opacity:1;stroke:purple;stroke-opacity:1"/></g></g></g></g><path d="M0,0" class="xlines-above crisp" style="fill:none"/><path d="M0,0" class="ylines-above crisp" style="fill:none"/><g class="xaxislayer-above"><g class="xtick"><text x="0" y="433" text-anchor="middle" transform="translate(107.59,0)" style="font-family:'Open Sans',verdana,arial,sans-serif;font-size:12px;fill:#2a3f5f;fill-opacity:1;white-space:pre;opacity:1">0</text></g><g class="xtick"><text x="0" y="433" text-anchor="middle" transform="translate(234.37,0)" style="font-family:'Open Sans',verdana,arial,sans-serif;font-size:12px;fill:#2a3f5f;fill-opacity:1;white-space:pre;opacity:1">5</text></g><g class="xtick"><text x="0" y="433" text-anchor="middle" transform="translate(361.14,0)" style="font-family:'Open Sans',verdana,arial,sans-serif;font-size:12px;fill:#2a3f5f;fill-opacity:1;white-space:pre;opacity:1">10</text></g><g class="xtick"><text x="0" y="433" text-anchor="middle" transform="translate(487.92,0)" style="font-family:'Open Sans',verdana,arial,sans-serif;font-size:12px;fill:#2a3f5f;fill-opacity:1;white-space:pre;opacity:1">15</text></g><g class="xtick"><text x="0" y="433" text-anchor="middle" transform="translate(614.7,0)" style="font-family:'Open Sans',verdana,arial,sans-serif;font-size:12px;fill:#2a3f5f;fill-opacity:1;white-space:pre;opacity:1">20</text></g></g><g class="yaxislayer-above"><g class="ytick"><text x="79" y="4.2" text-anchor="end" transform="translate(0,393.67)" style="font-family:'Open Sans',verdana,arial,sans-serif;font-size:12px;fill:#2a3f5f;fill-opacity:1;white-space:pre;opacity:1">30</text></g><g class="ytick"><text x="79" y="4.2" text-anchor="end" transform="translate(0,327.36)" style="font-family:'Open Sans',verdana,arial,sans-serif;font-size:12px;fill:#2a3f5f;fill-opacity:1;white-space:pre;opacity:1">40</text></g><g class="ytick"><text x="79" y="4.2" text-anchor="end" transform="translate(0,261.05)" style="font-family:'Open Sans',verdana,arial,sans-serif;font-size:12px;fill:#2a3f5f;fill-opacity:1;white-space:pre;opacity:1">50</text></g><g class="ytick"><text x="79" y="4.2" text-anchor="end" transform="translate(0,194.74)" style="font-family:'Open Sans',verdana,arial,sans-serif;font-size:12px;fill:#2a3f5f;fill-opacity:1;white-space:pre;opacity:1">60</text></g><g class="ytick"><text x="79" y="4.2" text-anchor="end" transform="translate(0,128.43)" style="font-family:'Open Sans',verdana,arial,sans-serif;font-size:12px;fill:#2a3f5f;fill-opacity:1;white-space:pre;opacity:1">70</text></g></g></g></g><defs id="topdefs-300a50"><clipPath id="legend300a50"><rect width="120" height="48" x="0" y="0"/></clipPath></defs><g class="infolayer"><g class="legend" pointer-events="all" transform="translate(667.52,100)"><rect style="stroke:#444;stroke-opacity:1;fill:#fff;fill-opacity:1;stroke-width:0" width="120" height="48" x="0" y="0" class="bg" shape-rendering="crispEdges"/><g class="scrollbox" clip-path="url(#legend300a50)"><g class="groups"><g class="traces" transform="translate(0,14.5)" style="opacity:1"><text x="40" y="4.68" class="legendtext" text-anchor="start" style="font-family:'Open Sans',verdana,arial,sans-serif;font-size:12px;fill:#2a3f5f;fill-opacity:1;white-space:pre">Model</text><g class="layers" style="opacity:1"><g class="legendlines"><path d="M5,0h30" class="js-line" style="fill:none;stroke:#ef553b;stroke-opacity:1;stroke-width:2px"/></g></g><rect width="114.141" height="19" x="0" y="-9.5" class="legendtoggle" style="fill:#000;fill-opacity:0"/></g><g class="traces" transform="translate(0,33.5)" style="opacity:1"><text x="40" y="4.68" class="legendtext" text-anchor="start" style="font-family:'Open Sans',verdana,arial,sans-serif;font-size:12px;fill:#2a3f5f;fill-opacity:1;white-space:pre">New Outputs</text><g class="layers" style="opacity:1"><g class="legendsymbols"><g class="legendpoints"><path d="M8,0A8,8 0 1,1 0,-8A8,8 0 0,1 8,0Z" class="scatterpts" transform="translate(20,0)" style="opacity:1;stroke-width:2px;fill:purple;fill-opacity:1;stroke:purple;stroke-opacity:1"/></g></g></g><rect width="114.141" height="19" x="0" y="-9.5" class="legendtoggle" style="fill:#000;fill-opacity:0"/></g></g></g><rect width="0" height="0" x="0" y="0" class="scrollbar" rx="20" ry="3" style="fill:#808ba4;fill-opacity:1"/></g><g class="g-gtitle"><text x="40" y="50" class="gtitle" dy="0em" text-anchor="start" style="font-family:'Open Sans',verdana,arial,sans-serif;font-size:17px;fill:#2a3f5f;opacity:1;font-weight:400;white-space:pre">Heights vs Age of people</text></g><g class="g-xtitle"><text x="368" y="461.8" class="xtitle" text-anchor="middle" style="font-family:'Open Sans',verdana,arial,sans-serif;font-size:14px;fill:#2a3f5f;opacity:1;font-weight:400;white-space:pre">Age (years)</text></g><g class="g-ytitle"><text x="40.466" y="260" class="ytitle" text-anchor="middle" transform="rotate(-90,40.465625,260)" style="font-family:'Open Sans',verdana,arial,sans-serif;font-size:14px;fill:#2a3f5f;opacity:1;font-weight:400;white-space:pre">Height (inches)</text></g></g></svg>