<svg xmlns="http://www.w3.org/2000/svg" xmlns:xlink="http://www.w3.org/1999/xlink" width="800" height="500" class="main-svg" viewBox="0 0 800 500"><rect width="800" height="500" x="0" y="0" style="fill:#fff;fill-opacity:1"/><defs id="defs-6fd8ce"><g class="clips"><clipPath id="clip6fd8cexyplot" class="plotclip"><rect width="576" height="320"/></clipPath><clipPath id="clip6fd8cex" class="axesclip"><rect width="576" height="500" x="80" y="0"/></clipPath><clipPath id="clip6fd8cey" class="axesclip"><rect width="800" height="320" x="0" y="100"/></clipPath><clipPath id="clip6fd8cexy" class="axesclip"><rect width="576" height="320" x="80" y="100"/></clipPath></g></defs><g class="bglayer"><rect width="576" height="320" x="80" y="100" class="bg" style="fill:#e5ecf6;fill-opacity:1;stroke-width:0"/></g><g class="cartesianlayer"><g class="subplot xy"><g class="gridlayer"><g class="x"><path d="M0,100v320" class="xgrid crisp" transform="translate(251.29,0)" style="stroke:#fff;stroke-opacity:1;stroke-width:1px"/><path d="M0,100v320" class="xgrid crisp" transform="translate(395.67,0)" style="stroke:#fff;stroke-opacity:1;stroke-width:1px"/><path d="M0,100v320" class="xgrid crisp" transform="translate(540.06,0)" style="stroke:#fff;stroke-opacity:1;stroke-width:1px"/></g><g class="y"><path d="M80,0h576" class="ygrid crisp" transform="translate(0,393.14)" style="stroke:#fff;stroke-opacity:1;stroke-width:1px"/><path d="M80,0h576" class="ygrid crisp" transform="translate(0,357.33)" style="stroke:#fff;stroke-opacity:1;stroke-width:1px"/><path d="M80,0h576" class="ygrid crisp" transform="translate(0,321.52)" style="stroke:#fff;stroke-opacity:1;stroke-width:1px"/><path d="M80,0h576" class="ygrid crisp" transform="translate(0,285.71000000000004)" style="stroke:#fff;stroke-opacity:1;stroke-width:1px"/><path d="M80,0h576" class="ygrid crisp" transform="translate(0,249.89)" style="stroke:#fff;stroke-opacity:1;stroke-width:1px"/><path d="M80,0h576" class="ygrid crisp" transform="translate(0,214.07999999999998)" style="stroke:#fff;stroke-opacity:1;stroke-width:1px"/><path d="M80,0h576" class="ygrid crisp" transform="translate(0,178.26999999999998)" style="stroke:#fff;stroke-opacity:1;stroke-width:1px"/><path d="M80,0h576" class="ygrid crisp" transform="translate(0,142.46)" style="stroke:#fff;stroke-opacity:1;stroke-width:1px"/><path d="M80,0h576" class="ygrid crisp" transform="translate(0,106.65)" style="stroke:#fff;stroke-opacity:1;stroke-width:1px"/></g></g><g class="zerolinelayer"><path d="M0,100v320" class="xzl zl crisp" transform="translate(106.9,0)" style="stroke:#fff;stroke-opacity:1;stroke-width:2px"/></g><path class="xlines-below"/><path class="ylines-below"/><g class="plot" clip-path="url(#clip6fd8cexyplot)" transform="translate(80,100)"><g class="scatterlayer mlayer"><g class="trace scatter trace7f484d" style="stroke-miterlimit:2;opacity:1"><g class="points"><path d="M3,0A3,3 0 1,1 0,-3A3,3 0 0,1 3,0Z" class="point" transform="translate(453.35,80.94)" style="opacity:1;stroke-width:0;fill:#636efa;fill-opacity:1"/><path d="M3,0A3,3 0 1,1 0,-3A3,3 0 0,1 3,0Z" class="point" transform="translate(116.64,249.12)" style="opacity:1;stroke-width:0;fill:#636efa;fill-opacity:1"/><path d="M3,0A3,3 0 1,1 0,-3A3,3 0 0,1 3,0Z" class="point" transform="translate(236.75,172.01)" style="opacity:1;stroke-width:0;fill:#636efa;fill-opacity:1"/><path d="M3,0A3,3 0 1,1 0,-3A3,3 0 0,1 3,0Z" class="point" transform="translate(79.32,299.41)" style="opacity:1;stroke-width:0;fill:#636efa;fill-opacity:1"/><path d="M3,0A3,3 0 1,1 0,-3A3,3 0 0,1 3,0Z" class="point" transform="translate(510.7,19.75)" style="opacity:1;stroke-width:0;fill:#636efa;fill-opacity:1"/><path d="M3,0A3,3 0 1,1 0,-3A3,3 0 0,1 3,0Z" class="point" transform="translate(181.43,190.39)" style="opacity:1;stroke-width:0;fill:#636efa;fill-opacity:1"/><path d="M3,0A3,3 0 1,1 0,-3A3,3 0 0,1 3,0Z" class="point" transform="translate(276.85,166.27)" style="opacity:1;stroke-width:0;fill:#636efa;fill-opacity:1"/><path d="M3,0A3,3 0 1,1 0,-3A3,3 0 0,1 3,0Z" class="point" transform="translate(148.36,237.06)" style="opacity:1;stroke-width:0;fill:#636efa;fill-opacity:1"/><path d="M3,0A3,3 0 1,1 0,-3A3,3 0 0,1 3,0Z" class="point" transform="translate(239.34,187.19)" style="opacity:1;stroke-width:0;fill:#636efa;fill-opacity:1"/><path d="M3,0A3,3 0 1,1 0,-3A3,3 0 0,1 3,0Z" class="point" transform="translate(75.07,264.07)" style="opacity:1;stroke-width:0;fill:#636efa;fill-opacity:1"/><path d="M3,0A3,3 0 1,1 0,-3A3,3 0 0,1 3,0Z" class="point" transform="translate(266.49,177.52)" style="opacity:1;stroke-width:0;fill:#636efa;fill-opacity:1"/><path d="M3,0A3,3 0 1,1 0,-3A3,3 0 0,1 3,0Z" class="point" transform="translate(452.82,103.65)" style="opacity:1;stroke-width:0;fill:#636efa;fill-opacity:1"/><path d="M3,0A3,3 0 1,1 0,-3A3,3 0 0,1 3,0Z" class="point" transform="translate(468.3,79.2)" style="opacity:1;stroke-width:0;fill:#636efa;fill-opacity:1"/><path d="M3,0A3,3 0 1,1 0,-3A3,3 0 0,1 3,0Z" class="point" transform="translate(507.86,47.93)" style="opacity:1;stroke-width:0;fill:#636efa;fill-opacity:1"/><path d="M3,0A3,3 0 1,1 0,-3A3,3 0 0,1 3,0Z" class="point" transform="translate(51.71,262.73)" style="opacity:1;stroke-width:0;fill:#636efa;fill-opacity:1"/><path d="M3,0A3,3 0 1,1 0,-3A3,3 0 0,1 3,0Z" class="point" transform="translate(270.43,183.57)" style="opacity:1;stroke-width:0;fill:#636efa;fill-opacity:1"/><path d="M3,0A3,3 0 1,1 0,-3A3,3 0 0,1 3,0Z" class="point" transform="translate(371.23,115.86)" style="opacity:1;stroke-width:0;fill:#636efa;fill-opacity:1"/><path d="M3,0A3,3 0 1,1 0,-3A3,3 0 0,1 3,0Z" class="point" transform="translate(49.09,272.12)" style="opacity:1;stroke-width:0;fill:#636efa;fill-opacity:1"/><path d="M3,0A3,3 0 1,1 0,-3A3,3 0 0,1 3,0Z" class="point" transform="translate(355,135.58)" style="opacity:1;stroke-width:0;fill:#636efa;fill-opacity:1"/><path d="M3,0A3,3 0 1,1 0,-3A3,3 0 0,1 3,0Z" class="point" transform="translate(64.32,282.23)" style="opacity:1;stroke-width:0;fill:#636efa;fill-opacity:1"/><path d="M3,0A3,3 0 1,1 0,-3A3,3 0 0,1 3,0Z" class="point" transform="translate(324.68,109.03)" style="opacity:1;stroke-width:0;fill:#636efa;fill-opacity:1"/><path d="M3,0A3,3 0 1,1 0,-3A3,3 0 0,1 3,0Z" class="point" transform="translate(529.17,50.62)" style="opacity:1;stroke-width:0;fill:#636efa;fill-opacity:1"/><path d="M3,0A3,3 0 1,1 0,-3A3,3 0 0,1 3,0Z" class="point" transform="translate(324.62,128.98)" style="opacity:1;stroke-width:0;fill:#636efa;fill-opacity:1"/><path d="M3,0A3,3 0 1,1 0,-3A3,3 0 0,1 3,0Z" class="point" transform="translate(207.02,240.42)" style="opacity:1;stroke-width:0;fill:#636efa;fill-opacity:1"/><path d="M3,0A3,3 0 1,1 0,-3A3,3 0 0,1 3,0Z" class="point" transform="translate(475.98,76.6)" style="opacity:1;stroke-width:0;fill:#636efa;fill-opacity:1"/><path d="M3,0A3,3 0 1,1 0,-3A3,3 0 0,1 3,0Z" class="point" transform="translate(106.99,257.26)" style="opacity:1;stroke-width:0;fill:#636efa;fill-opacity:1"/><path d="M3,0A3,3 0 1,1 0,-3A3,3 0 0,1 3,0Z" class="point" transform="translate(477.33,84.52)" style="opacity:1;stroke-width:0;fill:#636efa;fill-opacity:1"/><path d="M3,0A3,3 0 1,1 0,-3A3,3 0 0,1 3,0Z" class="point" transform="translate(245.73,162.65)" style="opacity:1;stroke-width:0;fill:#636efa;fill-opacity:1"/><path d="M3,0A3,3 0 1,1 0,-3A3,3 0 0,1 3,0Z" class="point" transform="translate(85.86,274.79)" style="opacity:1;stroke-width:0;fill:#636efa;fill-opacity:1"/><path d="M3,0A3,3 0 1,1 0,-3A3,3 0 0,1 3,0Z" class="point" transform="translate(312.98,165.99)" style="opacity:1;stroke-width:0;fill:#636efa;fill-opacity:1"/><path d="M3,0A3,3 0 1,1 0,-3A3,3 0 0,1 3,0Z" class="point" transform="translate(109.85,248.44)" style="opacity:1;stroke-width:0;fill:#636efa;fill-opacity:1"/><path d="M3,0A3,3 0 1,1 0,-3A3,3 0 0,1 3,0Z" class="point" transform="translate(71.44,266.06)" style="opacity:1;stroke-width:0;fill:#636efa;fill-opacity:1"/><path d="M3,0A3,3 0 1,1 0,-3A3,3 0 0,1 3,0Z" class="point" transform="translate(184.63,233.78)" style="opacity:1;stroke-width:0;fill:#636efa;fill-opacity:1"/><path d="M3,0A3,3 0 1,1 0,-3A3,3 0 0,1 3,0Z" class="point" transform="translate(461.32,84.7)" style="opacity:1;stroke-width:0;fill:#636efa;fill-opacity:1"/><path d="M3,0A3,3 0 1,1 0,-3A3,3 0 0,1 3,0Z" class="point" transform="translate(199.98,197.98)" style="opacity:1;stroke-width:0;fill:#636efa;fill-opacity:1"/><path d="M3,0A3,3 0 1,1 0,-3A3,3 0 0,1 3,0Z" class="point" transform="translate(165.66,223.91)" style="opacity:1;stroke-width:0;fill:#636efa;fill-opacity:1"/><path d="M3,0A3,3 0 1,1 0,-3A3,3 0 0,1 3,0Z" class="point" transform="translate(285.35,186.04)" style="opacity:1;stroke-width:0;fill:#636efa;fill-opacity:1"/><path d="M3,0A3,3 0 1,1 0,-3A3,3 0 0,1 3,0Z" class="point" transform="translate(171.87,239.86)" style="opacity:1;stroke-width:0;fill:#636efa;fill-opacity:1"/><path d="M3,0A3,3 0 1,1 0,-3A3,3 0 0,1 3,0Z" class="point" transform="translate(312.65,133.28)" style="opacity:1;stroke-width:0;fill:#636efa;fill-opacity:1"/><path d="M3,0A3,3 0 1,1 0,-3A3,3 0 0,1 3,0Z" class="point" transform="translate(177.14,235.13)" style="opacity:1;stroke-width:0;fill:#636efa;fill-opacity:1"/><path d="M3,0A3,3 0 1,1 0,-3A3,3 0 0,1 3,0Z" class="point" transform="translate(32.55,296.66)" style="opacity:1;stroke-width:0;fill:#636efa;fill-opacity:1"/><path d="M3,0A3,3 0 1,1 0,-3A3,3 0 0,1 3,0Z" class="point" transform="translate(52.66,277.55)" style="opacity:1;stroke-width:0;fill:#636efa;fill-opacity:1"/><path d="M3,0A3,3 0 1,1 0,-3A3,3 0 0,1 3,0Z" class="point" transform="translate(237.99,200.67)" style="opacity:1;stroke-width:0;fill:#636efa;fill-opacity:1"/><path d="M3,0A3,3 0 1,1 0,-3A3,3 0 0,1 3,0Z" class="point" transform="translate(340.35,133.14)" style="opacity:1;stroke-width:0;fill:#636efa;fill-opacity:1"/><path d="M3,0A3,3 0 1,1 0,-3A3,3 0 0,1 3,0Z" class="point" transform="translate(480.24,59.35)" style="opacity:1;stroke-width:0;fill:#636efa;fill-opacity:1"/><path d="M3,0A3,3 0 1,1 0,-3A3,3 0 0,1 3,0Z" class="point" transform="translate(50.35,247.69)" style="opacity:1;stroke-width:0;fill:#636efa;fill-opacity:1"/><path d="M3,0A3,3 0 1,1 0,-3A3,3 0 0,1 3,0Z" class="point" transform="translate(471.65,59.04)" style="opacity:1;stroke-width:0;fill:#636efa;fill-opacity:1"/><path d="M3,0A3,3 0 1,1 0,-3A3,3 0 0,1 3,0Z" class="point" transform="translate(293.03,148.97)" style="opacity:1;stroke-width:0;fill:#636efa;fill-opacity:1"/><path d="M3,0A3,3 0 1,1 0,-3A3,3 0 0,1 3,0Z" class="point" transform="translate(286.37,164.14)" style="opacity:1;stroke-width:0;fill:#636efa;fill-opacity:1"/><path d="M3,0A3,3 0 1,1 0,-3A3,3 0 0,1 3,0Z" class="point" transform="translate(135.01,212.15)" style="opacity:1;stroke-width:0;fill:#636efa;fill-opacity:1"/><path d="M3,0A3,3 0 1,1 0,-3A3,3 0 0,1 3,0Z" class="point" transform="translate(48.61,280.05)" style="opacity:1;stroke-width:0;fill:#636efa;fill-opacity:1"/><path d="M3,0A3,3 0 1,1 0,-3A3,3 0 0,1 3,0Z" class="point" transform="translate(217.38,199.47)" style="opacity:1;stroke-width:0;fill:#636efa;fill-opacity:1"/><path d="M3,0A3,3 0 1,1 0,-3A3,3 0 0,1 3,0Z" class="point" transform="translate(308.48,199.75)" style="opacity:1;stroke-width:0;fill:#636efa;fill-opacity:1"/><path d="M3,0A3,3 0 1,1 0,-3A3,3 0 0,1 3,0Z" class="point" transform="translate(240.62,191.89)" style="opacity:1;stroke-width:0;fill:#636efa;fill-opacity:1"/><path d="M3,0A3,3 0 1,1 0,-3A3,3 0 0,1 3,0Z" class="point" transform="translate(527.26,39.68)" style="opacity:1;stroke-width:0;fill:#636efa;fill-opacity:1"/><path d="M3,0A3,3 0 1,1 0,-3A3,3 0 0,1 3,0Z" class="point" transform="translate(331.09,131.57)" style="opacity:1;stroke-width:0;fill:#636efa;fill-opacity:1"/><path d="M3,0A3,3 0 1,1 0,-3A3,3 0 0,1 3,0Z" class="point" transform="translate(464.91,95.87)" style="opacity:1;stroke-width:0;fill:#636efa;fill-opacity:1"/><path d="M3,0A3,3 0 1,1 0,-3A3,3 0 0,1 3,0Z" class="point" transform="translate(300.36,144.63)" style="opacity:1;stroke-width:0;fill:#636efa;fill-opacity:1"/><path d="M3,0A3,3 0 1,1 0,-3A3,3 0 0,1 3,0Z" class="point" transform="translate(418.1,104.35)" style="opacity:1;stroke-width:0;fill:#636efa;fill-opacity:1"/><path d="M3,0A3,3 0 1,1 0,-3A3,3 0 0,1 3,0Z" class="point" transform="translate(252.18,210.23)" style="opacity:1;stroke-width:0;fill:#636efa;fill-opacity:1"/><path d="M3,0A3,3 0 1,1 0,-3A3,3 0 0,1 3,0Z" class="point" transform="translate(99.64,276.65)" style="opacity:1;stroke-width:0;fill:#636efa;fill-opacity:1"/><path d="M3,0A3,3 0 1,1 0,-3A3,3 0 0,1 3,0Z" class="point" transform="translate(163.1,204.82)" style="opacity:1;stroke-width:0;fill:#636efa;fill-opacity:1"/><path d="M3,0A3,3 0 1,1 0,-3A3,3 0 0,1 3,0Z" class="point" transform="translate(316.79,155.48)" style="opacity:1;stroke-width:0;fill:#636efa;fill-opacity:1"/><path d="M3,0A3,3 0 1,1 0,-3A3,3 0 0,1 3,0Z" class="point" transform="translate(366.82,125.16)" style="opacity:1;stroke-width:0;fill:#636efa;fill-opacity:1"/><path d="M3,0A3,3 0 1,1 0,-3A3,3 0 0,1 3,0Z" class="point" transform="translate(273.43,165.63)" style="opacity:1;stroke-width:0;fill:#636efa;fill-opacity:1"/><path d="M3,0A3,3 0 1,1 0,-3A3,3 0 0,1 3,0Z" class="point" transform="translate(101.51,257.82)" style="opacity:1;stroke-width:0;fill:#636efa;fill-opacity:1"/><path d="M3,0A3,3 0 1,1 0,-3A3,3 0 0,1 3,0Z" class="point" transform="translate(68.42,300.25)" style="opacity:1;stroke-width:0;fill:#636efa;fill-opacity:1"/><path d="M3,0A3,3 0 1,1 0,-3A3,3 0 0,1 3,0Z" class="point" transform="translate(327.41,133.16)" style="opacity:1;stroke-width:0;fill:#636efa;fill-opacity:1"/><path d="M3,0A3,3 0 1,1 0,-3A3,3 0 0,1 3,0Z" class="point" transform="translate(513.75,54)" style="opacity:1;stroke-width:0;fill:#636efa;fill-opacity:1"/><path d="M3,0A3,3 0 1,1 0,-3A3,3 0 0,1 3,0Z" class="point" transform="translate(379.91,128.98)" style="opacity:1;stroke-width:0;fill:#636efa;fill-opacity:1"/><path d="M3,0A3,3 0 1,1 0,-3A3,3 0 0,1 3,0Z" class="point" transform="translate(301.66,139.54)" style="opacity:1;stroke-width:0;fill:#636efa;fill-opacity:1"/><path d="M3,0A3,3 0 1,1 0,-3A3,3 0 0,1 3,0Z" class="point" transform="translate(318.04,157.1)" style="opacity:1;stroke-width:0;fill:#636efa;fill-opacity:1"/><path d="M3,0A3,3 0 1,1 0,-3A3,3 0 0,1 3,0Z" class="point" transform="translate(263.58,169)" style="opacity:1;stroke-width:0;fill:#636efa;fill-opacity:1"/><path d="M3,0A3,3 0 1,1 0,-3A3,3 0 0,1 3,0Z" class="point" transform="translate(330.02,117.47)" style="opacity:1;stroke-width:0;fill:#636efa;fill-opacity:1"/><path d="M3,0A3,3 0 1,1 0,-3A3,3 0 0,1 3,0Z" class="point" transform="translate(236.94,177.01)" style="opacity:1;stroke-width:0;fill:#636efa;fill-opacity:1"/><path d="M3,0A3,3 0 1,1 0,-3A3,3 0 0,1 3,0Z" class="point" transform="translate(348.29,143.1)" style="opacity:1;stroke-width:0;fill:#636efa;fill-opacity:1"/><path d="M3,0A3,3 0 1,1 0,-3A3,3 0 0,1 3,0Z" class="point" transform="translate(78.87,262.71)" style="opacity:1;stroke-width:0;fill:#636efa;fill-opacity:1"/><path d="M3,0A3,3 0 1,1 0,-3A3,3 0 0,1 3,0Z" class="point" transform="translate(251.85,164.26)" style="opacity:1;stroke-width:0;fill:#636efa;fill-opacity:1"/><path d="M3,0A3,3 0 1,1 0,-3A3,3 0 0,1 3,0Z" class="point" transform="translate(229.89,211.36)" style="opacity:1;stroke-width:0;fill:#636efa;fill-opacity:1"/><path d="M3,0A3,3 0 1,1 0,-3A3,3 0 0,1 3,0Z" class="point" transform="translate(196.1,197.08)" style="opacity:1;stroke-width:0;fill:#636efa;fill-opacity:1"/><path d="M3,0A3,3 0 1,1 0,-3A3,3 0 0,1 3,0Z" class="point" transform="translate(527.72,47.42)" style="opacity:1;stroke-width:0;fill:#636efa;fill-opacity:1"/><path d="M3,0A3,3 0 1,1 0,-3A3,3 0 0,1 3,0Z" class="point" transform="translate(216.67,193.79)" style="opacity:1;stroke-width:0;fill:#636efa;fill-opacity:1"/><path d="M3,0A3,3 0 1,1 0,-3A3,3 0 0,1 3,0Z" class="point" transform="translate(469.84,71.18)" style="opacity:1;stroke-width:0;fill:#636efa;fill-opacity:1"/><path d="M3,0A3,3 0 1,1 0,-3A3,3 0 0,1 3,0Z" class="point" transform="translate(543.45,46.85)" style="opacity:1;stroke-width:0;fill:#636efa;fill-opacity:1"/><path d="M3,0A3,3 0 1,1 0,-3A3,3 0 0,1 3,0Z" class="point" transform="translate(439.1,104.31)" style="opacity:1;stroke-width:0;fill:#636efa;fill-opacity:1"/><path d="M3,0A3,3 0 1,1 0,-3A3,3 0 0,1 3,0Z" class="point" transform="translate(434.9,92.76)" style="opacity:1;stroke-width:0;fill:#636efa;fill-opacity:1"/><path d="M3,0A3,3 0 1,1 0,-3A3,3 0 0,1 3,0Z" class="point" transform="translate(347.15,122.56)" style="opacity:1;stroke-width:0;fill:#636efa;fill-opacity:1"/><path d="M3,0A3,3 0 1,1 0,-3A3,3 0 0,1 3,0Z" class="point" transform="translate(423.9,85.89)" style="opacity:1;stroke-width:0;fill:#636efa;fill-opacity:1"/><path d="M3,0A3,3 0 1,1 0,-3A3,3 0 0,1 3,0Z" class="point" transform="translate(238.39,172.4)" style="opacity:1;stroke-width:0;fill:#636efa;fill-opacity:1"/><path d="M3,0A3,3 0 1,1 0,-3A3,3 0 0,1 3,0Z" class="point" transform="translate(188.37,226.25)" style="opacity:1;stroke-width:0;fill:#636efa;fill-opacity:1"/><path d="M3,0A3,3 0 1,1 0,-3A3,3 0 0,1 3,0Z" class="point" transform="translate(102.72,272.24)" style="opacity:1;stroke-width:0;fill:#636efa;fill-opacity:1"/><path d="M3,0A3,3 0 1,1 0,-3A3,3 0 0,1 3,0Z" class="point" transform="translate(186.28,216.48)" style="opacity:1;stroke-width:0;fill:#636efa;fill-opacity:1"/><path d="M3,0A3,3 0 1,1 0,-3A3,3 0 0,1 3,0Z" class="point" transform="translate(405.69,112.81)" style="opacity:1;stroke-width:0;fill:#636efa;fill-opacity:1"/></g></g><g class="trace scatter trace086bff" style="stroke-miterlimit:2;opacity:1"><g class="lines"><path d="M26.9,293.42L546.69,35.39" class="js-line" style="vector-effect:non-scaling-stroke;fill:none;stroke:#ef553b;stroke-opacity:1;stroke-width:2px;opacity:1"/></g></g><g class="trace scatter trace852a90" style="stroke-miterlimit:2;opacity:1"><g class="points"><path d="M10,0A10,10 0 1,1 0,-10A10,10 0 0,1 10,0Z" class="point" transform="translate(55.78,279.08)" style="opacity:1;stroke-width:2px;fill:purple;fill-opacity:1;stroke:purple;stroke-opacity:1"/><path d="M10,0A10,10 0 1,1 0,-10A10,10 0 0,1 10,0Z" class="point" transform="translate(113.53,250.41)" style="opacity:1;stroke-width:2px;fill:purple;fill-opacity:1;stroke:purple;stroke-opacity:1"/><path d="M10,0A10,10 0 1,1 0,-10A10,10 0 0,1 10,0Z" class="point" transform="translate(119.31,247.54)" style="opacity:1;stroke-width:2px;fill:purple;fill-opacity:1;stroke:purple;stroke-opacity:1"/></g></g></g></g><path d="M0,0" class="xlines-above crisp" style="fill:none"/><path d="M0,0" class="ylines-above crisp" style="fill:none"/><g class="xaxislayer-above"><g class="xtick"><text x="0" y="433" text-anchor="middle" transform="translate(106.9,0)" style="font-family:'Open Sans',verdana,arial,sans-serif;font-size:12px;fill:#2a3f5f;fill-opacity:1;white-space:pre;opacity:1">0</text></g><g class="xtick"><text x="0" y="433" text-anchor="middle" transform="translate(251.29,0)" style="font-family:'Open Sans',verdana,arial,sans-serif;font-size:12px;fill:#2a3f5f;fill-opacity:1;white-space:pre;opacity:1">5</text></g><g class="xtick"><text x="0" y="433" text-anchor="middle" transform="translate(395.67,0)" style="font-family:'Open Sans',verdana,arial,sans-serif;font-size:12px;fill:#2a3f5f;fill-opacity:1;white-space:pre;opacity:1">10</text></g><g class="xtick"><text x="0" y="433" text-anchor="middle" transform="translate(540.06,0)" style="font-family:'Open Sans',verdana,arial,sans-serif;font-size:12px;fill:#2a3f5f;fill-opacity:1;white-space:pre;opacity:1">15</text></g></g><g class="yaxislayer-above"><g class="ytick"><text x="79" y="4.2" text-anchor="end" transform="translate(0,393.14)" style="font-family:'Open Sans',verdana,arial,sans-serif;font-size:12px;fill:#2a3f5f;fill-opacity:1;white-space:pre;opacity:1">30</text></g><g class="ytick"><text x="79" y="4.2" text-anchor="end" transform="translate(0,357.33)" style="font-family:'Open Sans',verdana,arial,sans-serif;font-size:12px;fill:#2a3f5f;fill-opacity:1;white-space:pre;opacity:1">35</text></g><g class="ytick"><text x="79" y="4.2" text-anchor="end" transform="translate(0,321.52)" style="font-family:'Open Sans',verdana,arial,sans-serif;font-size:12px;fill:#2a3f5f;fill-opacity:1;white-space:pre;opacity:1">40</text></g><g class="ytick"><text x="79" y="4.2" text-anchor="end" transform="translate(0,285.71000000000004)" style="font-family:'Open Sans',verdana,arial,sans-serif;font-size:12px;fill:#2a3f5f;fill-opacity:1;white-space:pre;opacity:1">45</text></g><g class="ytick"><text x="79" y="4.2" text-anchor="end" transform="translate(0,249.89)" style="font-family:'Open Sans',verdana,arial,sans-serif;font-size:12px;fill:#2a3f5f;fill-opacity:1;white-space:pre;opacity:1">50</text></g><g class="ytick"><text x="79" y="4.2" text-anchor="end" transform="translate(0,214.07999999999998)" style="font-family:'Open Sans',verdana,arial,sans-serif;font-size:12px;fill:#2a3f5f;fill-opacity:1;white-space:pre;opacity:1">55</text></g><g class="ytick"><text x="79" y="4.2" text-anchor="end" transform="translate(0,178.26999999999998)" style="font-family:'Open Sans',verdana,arial,sans-serif;font-size:12px;fill:#2a3f5f;fill-opacity:1;white-space:pre;opacity:1">60</text></g><g class="ytick"><text x="79" y="4.2" text-anchor="end" transform="translate(0,142.46)" style="font-family:'Open Sans',verdana,arial,sans-serif;font-size:12px;fill:#2a3f5f;fill-opacity:1;white-space:pre;opacity:1">65</text></g><g class="ytick"><text x="79" y="4.2" text-anchor="end" transform="translate(0,106.65)" style="font-family:'Open Sans',verdana,arial,sans-serif;font-size:12px;fill:#2a3f5f;fill-opacity:1;white-space:pre;opacity:1">70</text></g></g></g></g><defs id="topdefs-6fd8ce"><clipPath id="legend6fd8ce"><rect width="120" height="48" x="0" y="0"/></clipPath></defs><g class="infolayer"><g class="legend" pointer-events="all" transform="translate(667.52,100)"><rect width="120" height="48" x="0" y="0" class="bg" shape-rendering="crispEdges" style="stroke:#444;stroke-opacity:1;fill:#fff;fill-opacity:1;stroke-width:0"/><g class="scrollbox" clip-path="url(#legend6fd8ce)"><g class="groups"><g class="traces" transform="translate(0,14.5)" style="opacity:1"><text x="40" y="4.68" class="legendtext" text-anchor="start" style="font-family:'Open Sans',verdana,arial,sans-serif;font-size:12px;fill:#2a3f5f;fill-opacity:1;white-space:pre">Model</text><g class="layers" style="opacity:1"><g class="legendlines"><path d="M5,0h30" class="js-line" style="fill:none;stroke:#ef553b;stroke-opacity:1;stroke-width:2px"/></g></g><rect width="114.125" height="19" x="0" y="-9.5" class="legendtoggle" style="fill:#000;fill-opacity:0"/></g><g class="traces" transform="translate(0,33.5)" style="opacity:1"><text x="40" y="4.68" class="legendtext" text-anchor="start" style="font-family:'Open Sans',verdana,arial,sans-serif;font-size:12px;fill:#2a3f5f;fill-opacity:1;white-space:pre">New Outputs</text><g class="layers" style="opacity:1"><g class="legendsymbols"><g class="legendpoints"><path d="M8,0A8,8 0 1,1 0,-8A8,8 0 0,1 8,0Z" class="scatterpts" transform="translate(20,0)" style="opacity:1;stroke-width:2px;fill:purple;fill-opacity:1;stroke:purple;stroke-opacity:1"/></g></g></g><rect width="114.125" height="19" x="0" y="-9.5" class="legendtoggle" style="fill:#000;fill-opacity:0"/></g></g></g><rect width="0" height="0" x="0" y="0" class="scrollbar" rx="20" ry="3" style="fill:#808ba4;fill-opacity:1"/></g><g class="g-gtitle"><text x="40" y="50" class="gtitle" dy="0em" text-anchor="start" style="font-family:'Open Sans',verdana,arial,sans-serif;font-size:17px;fill:#2a3f5f;opacity:1;font-weight:400;white-space:pre">Heights vs Age of people</text></g><g class="g-xtitle"><text x="368" y="461.8" class="xtitle" text-anchor="middle" style="font-family:'Open Sans',verdana,arial,sans-serif;font-size:14px;fill:#2a3f5f;opacity:1;font-weight:400;white-space:pre">Age (years)</text></g><g class="g-ytitle"><text x="40.466" y="260" class="ytitle" text-anchor="middle" transform="rotate(-90,40.465625,260)" style="font-family:'Open Sans',verdana,arial,sans-serif;font-size:14px;fill:#2a3f5f;opacity:1;font-weight:400;white-space:pre">Height (inches)</text></g></g></svg>